<?xml version="1.0" encoding="UTF-8"?>
<svg xmlns="http://www.w3.org/2000/svg" xmlns:xlink="http://www.w3.org/1999/xlink" width="50px" height="50px" viewBox="0 0 50 50" version="1.1">
<g id="surface1">
<rect x="0" y="0" width="50" height="50" style="fill:rgb(100%,100%,100%);fill-opacity:1;stroke:none;"/>
<path style=" stroke:none;fill-rule:nonzero;fill:rgb(38.823529%,74.901961%,80%);fill-opacity:1;" d="M 10.832031 15 L 10.957031 15.125 Z M 10.832031 15 "/>
<path style=" stroke:none;fill-rule:nonzero;fill:rgb(0.784314%,64.313725%,72.156863%);fill-opacity:1;" d="M 10.875 15 C 11.160156 15.398438 11.605469 15.707031 11.957031 16.042969 C 12.796875 16.84375 13.65625 17.617188 14.511719 18.394531 C 16.890625 20.554688 19.234375 22.75 21.589844 24.929688 C 22.460938 25.738281 23.320312 26.558594 24.207031 27.34375 C 24.40625 27.519531 24.84375 28.117188 25.125 28.117188 C 25.304688 28.117188 25.542969 27.816406 25.667969 27.699219 C 26.128906 27.277344 26.589844 26.851562 27.042969 26.417969 C 28.769531 24.769531 30.605469 23.230469 32.292969 21.542969 L 32.292969 25.957031 L 32.25 35.957031 C 32.890625 35.625 33.457031 34.945312 34 34.46875 C 35.199219 33.429688 36.40625 32.394531 37.582031 31.332031 C 37.980469 30.96875 38.386719 30.617188 38.792969 30.269531 C 38.972656 30.113281 39.265625 29.941406 39.351562 29.707031 C 39.484375 29.34375 39.375 28.761719 39.375 28.375 L 39.375 15 L 31.5 15 L 30.667969 15.035156 L 29.375 16.003906 L 26.625 18.125 L 25.582031 18.925781 L 25.125 19.222656 L 24.707031 18.972656 L 23.667969 18.171875 L 20.917969 16.066406 L 19.542969 15.035156 L 18.707031 15 Z M 10.875 15 "/>
<path style=" stroke:none;fill-rule:nonzero;fill:rgb(38.823529%,74.901961%,80%);fill-opacity:1;" d="M 19.542969 15 L 19.582031 15.042969 L 19.542969 15 M 30.625 15 L 30.667969 15.042969 L 30.625 15 M 39.375 15 L 39.375 29.75 L 39.417969 29.75 L 39.417969 16.332031 L 39.375 15 M 19.582031 15.042969 L 19.625 15.082031 Z M 19.582031 15.042969 "/>
<path style=" stroke:none;fill-rule:nonzero;fill:rgb(63.137255%,87.843137%,90.980392%);fill-opacity:1;" d="M 19.625 15.042969 L 19.667969 15.082031 L 19.625 15.042969 M 30.542969 15.042969 L 30.582031 15.082031 Z M 30.542969 15.042969 "/>
<path style=" stroke:none;fill-rule:nonzero;fill:rgb(38.823529%,74.901961%,80%);fill-opacity:1;" d="M 30.582031 15.042969 L 30.625 15.082031 Z M 30.582031 15.042969 "/>
<path style=" stroke:none;fill-rule:nonzero;fill:rgb(63.137255%,87.843137%,90.980392%);fill-opacity:1;" d="M 19.667969 15.082031 L 19.707031 15.125 L 19.667969 15.082031 M 30.5 15.082031 L 30.542969 15.125 L 30.5 15.082031 M 10.957031 15.125 L 11 15.167969 Z M 10.957031 15.125 "/>
<path style=" stroke:none;fill-rule:nonzero;fill:rgb(38.823529%,74.901961%,80%);fill-opacity:1;" d="M 19.707031 15.125 L 19.75 15.167969 Z M 19.707031 15.125 "/>
<path style=" stroke:none;fill-rule:nonzero;fill:rgb(63.137255%,87.843137%,90.980392%);fill-opacity:1;" d="M 30.457031 15.125 L 30.5 15.167969 L 30.457031 15.125 M 11 15.167969 L 11.042969 15.207031 Z M 11 15.167969 "/>
<path style=" stroke:none;fill-rule:nonzero;fill:rgb(38.823529%,74.901961%,80%);fill-opacity:1;" d="M 19.75 15.167969 L 19.832031 15.25 Z M 19.75 15.167969 "/>
<path style=" stroke:none;fill-rule:nonzero;fill:rgb(63.137255%,87.843137%,90.980392%);fill-opacity:1;" d="M 19.792969 15.167969 L 19.832031 15.207031 Z M 19.792969 15.167969 "/>
<path style=" stroke:none;fill-rule:nonzero;fill:rgb(38.823529%,74.901961%,80%);fill-opacity:1;" d="M 30.417969 15.167969 L 30.457031 15.207031 Z M 30.417969 15.167969 "/>
<path style=" stroke:none;fill-rule:nonzero;fill:rgb(63.137255%,87.843137%,90.980392%);fill-opacity:1;" d="M 11.042969 15.207031 L 11.082031 15.25 L 11.042969 15.207031 M 19.832031 15.207031 L 19.875 15.25 L 19.832031 15.207031 M 30.332031 15.207031 L 30.375 15.25 L 30.332031 15.207031 M 11.082031 15.25 L 11.125 15.292969 L 11.082031 15.25 M 19.875 15.25 L 19.917969 15.292969 L 19.875 15.25 M 30.292969 15.25 L 30.332031 15.292969 L 30.292969 15.25 M 11.125 15.292969 L 11.207031 15.375 Z M 11.125 15.292969 "/>
<path style=" stroke:none;fill-rule:nonzero;fill:rgb(38.823529%,74.901961%,80%);fill-opacity:1;" d="M 11.167969 15.292969 L 11.207031 15.332031 L 11.167969 15.292969 M 19.917969 15.292969 L 19.957031 15.332031 L 19.917969 15.292969 M 30.25 15.292969 L 30.292969 15.332031 L 30.25 15.292969 M 19.957031 15.332031 L 20 15.375 Z M 19.957031 15.332031 "/>
<path style=" stroke:none;fill-rule:nonzero;fill:rgb(63.137255%,87.843137%,90.980392%);fill-opacity:1;" d="M 20 15.332031 L 20.042969 15.375 Z M 20 15.332031 "/>
<path style=" stroke:none;fill-rule:nonzero;fill:rgb(38.823529%,74.901961%,80%);fill-opacity:1;" d="M 30.207031 15.332031 L 30.25 15.375 L 30.207031 15.332031 M 11.25 15.375 L 11.332031 15.457031 Z M 11.25 15.375 "/>
<path style=" stroke:none;fill-rule:nonzero;fill:rgb(63.137255%,87.843137%,90.980392%);fill-opacity:1;" d="M 20.042969 15.375 L 20.082031 15.417969 L 20.042969 15.375 M 30.125 15.375 L 30.167969 15.417969 L 30.125 15.375 M 11.25 15.417969 L 11.292969 15.457031 Z M 11.25 15.417969 "/>
<path style=" stroke:none;fill-rule:nonzero;fill:rgb(38.823529%,74.901961%,80%);fill-opacity:1;" d="M 20.082031 15.417969 L 20.125 15.457031 Z M 20.082031 15.417969 "/>
<path style=" stroke:none;fill-rule:nonzero;fill:rgb(63.137255%,87.843137%,90.980392%);fill-opacity:1;" d="M 30.082031 15.417969 L 30.125 15.457031 Z M 30.082031 15.417969 "/>
<path style=" stroke:none;fill-rule:nonzero;fill:rgb(38.823529%,74.901961%,80%);fill-opacity:1;" d="M 11.332031 15.457031 L 11.375 15.5 L 11.332031 15.457031 M 20.125 15.457031 L 20.167969 15.5 Z M 20.125 15.457031 "/>
<path style=" stroke:none;fill-rule:nonzero;fill:rgb(63.137255%,87.843137%,90.980392%);fill-opacity:1;" d="M 20.167969 15.457031 L 20.207031 15.5 Z M 20.167969 15.457031 "/>
<path style=" stroke:none;fill-rule:nonzero;fill:rgb(38.823529%,74.901961%,80%);fill-opacity:1;" d="M 30.042969 15.457031 L 30.082031 15.5 L 30.042969 15.457031 M 11.375 15.5 L 11.417969 15.542969 Z M 11.375 15.5 "/>
<path style=" stroke:none;fill-rule:nonzero;fill:rgb(63.137255%,87.843137%,90.980392%);fill-opacity:1;" d="M 20.207031 15.5 L 20.25 15.542969 L 20.207031 15.5 M 29.957031 15.5 L 30 15.542969 Z M 29.957031 15.5 "/>
<path style=" stroke:none;fill-rule:nonzero;fill:rgb(38.823529%,74.901961%,80%);fill-opacity:1;" d="M 11.417969 15.542969 L 11.457031 15.582031 L 11.417969 15.542969 M 20.25 15.542969 L 20.292969 15.582031 Z M 20.25 15.542969 "/>
<path style=" stroke:none;fill-rule:nonzero;fill:rgb(63.137255%,87.843137%,90.980392%);fill-opacity:1;" d="M 29.917969 15.542969 L 29.957031 15.582031 Z M 29.917969 15.542969 "/>
<path style=" stroke:none;fill-rule:nonzero;fill:rgb(38.823529%,74.901961%,80%);fill-opacity:1;" d="M 11.457031 15.582031 L 11.5 15.625 L 11.457031 15.582031 M 20.292969 15.582031 L 20.332031 15.625 L 20.292969 15.582031 M 29.875 15.582031 L 29.917969 15.625 Z M 29.875 15.582031 "/>
<path style=" stroke:none;fill-rule:nonzero;fill:rgb(63.137255%,87.843137%,90.980392%);fill-opacity:1;" d="M 11.5 15.625 L 11.542969 15.667969 L 11.5 15.625 M 20.375 15.625 L 20.417969 15.667969 L 20.375 15.625 M 29.792969 15.625 L 29.832031 15.667969 L 29.792969 15.625 M 11.542969 15.667969 L 11.582031 15.707031 L 11.542969 15.667969 M 20.417969 15.667969 L 20.457031 15.707031 L 20.417969 15.667969 M 29.75 15.667969 L 29.792969 15.707031 L 29.75 15.667969 M 11.582031 15.707031 L 11.625 15.75 Z M 11.582031 15.707031 "/>
<path style=" stroke:none;fill-rule:nonzero;fill:rgb(38.823529%,74.901961%,80%);fill-opacity:1;" d="M 20.457031 15.707031 L 20.5 15.75 L 20.457031 15.707031 M 29.707031 15.707031 L 29.75 15.75 Z M 29.707031 15.707031 "/>
<path style=" stroke:none;fill-rule:nonzero;fill:rgb(63.137255%,87.843137%,90.980392%);fill-opacity:1;" d="M 11.625 15.75 L 11.667969 15.792969 Z M 11.625 15.75 "/>
<path style=" stroke:none;fill-rule:nonzero;fill:rgb(38.823529%,74.901961%,80%);fill-opacity:1;" d="M 20.5 15.75 L 20.542969 15.792969 Z M 20.5 15.75 "/>
<path style=" stroke:none;fill-rule:nonzero;fill:rgb(63.137255%,87.843137%,90.980392%);fill-opacity:1;" d="M 20.542969 15.75 L 20.582031 15.792969 L 20.542969 15.75 M 29.625 15.75 L 29.667969 15.792969 Z M 29.625 15.75 "/>
<path style=" stroke:none;fill-rule:nonzero;fill:rgb(38.823529%,74.901961%,80%);fill-opacity:1;" d="M 29.667969 15.75 L 29.707031 15.792969 Z M 29.667969 15.75 "/>
<path style=" stroke:none;fill-rule:nonzero;fill:rgb(63.137255%,87.843137%,90.980392%);fill-opacity:1;" d="M 11.667969 15.792969 L 11.707031 15.832031 L 11.667969 15.792969 M 20.582031 15.792969 L 20.625 15.832031 L 20.582031 15.792969 M 29.582031 15.792969 L 29.625 15.832031 L 29.582031 15.792969 M 11.707031 15.832031 L 11.75 15.875 Z M 11.707031 15.832031 "/>
<path style=" stroke:none;fill-rule:nonzero;fill:rgb(38.823529%,74.901961%,80%);fill-opacity:1;" d="M 20.625 15.832031 L 20.667969 15.875 Z M 20.625 15.832031 "/>
<path style=" stroke:none;fill-rule:nonzero;fill:rgb(63.137255%,87.843137%,90.980392%);fill-opacity:1;" d="M 29.542969 15.832031 L 29.582031 15.875 L 29.542969 15.832031 M 11.75 15.875 L 11.832031 15.957031 Z M 11.75 15.875 "/>
<path style=" stroke:none;fill-rule:nonzero;fill:rgb(38.823529%,74.901961%,80%);fill-opacity:1;" d="M 11.792969 15.875 L 11.832031 15.917969 L 11.792969 15.875 M 20.667969 15.875 L 20.707031 15.917969 Z M 20.667969 15.875 "/>
<path style=" stroke:none;fill-rule:nonzero;fill:rgb(63.137255%,87.843137%,90.980392%);fill-opacity:1;" d="M 20.707031 15.875 L 20.75 15.917969 Z M 20.707031 15.875 "/>
<path style=" stroke:none;fill-rule:nonzero;fill:rgb(38.823529%,74.901961%,80%);fill-opacity:1;" d="M 29.5 15.875 L 29.542969 15.917969 L 29.5 15.875 M 11.832031 15.917969 L 11.875 15.957031 Z M 11.832031 15.917969 "/>
<path style=" stroke:none;fill-rule:nonzero;fill:rgb(63.137255%,87.843137%,90.980392%);fill-opacity:1;" d="M 20.75 15.917969 L 20.792969 15.957031 L 20.75 15.917969 M 29.417969 15.917969 L 29.457031 15.957031 Z M 29.417969 15.917969 "/>
<path style=" stroke:none;fill-rule:nonzero;fill:rgb(38.823529%,74.901961%,80%);fill-opacity:1;" d="M 29.457031 15.917969 L 29.5 15.957031 L 29.457031 15.917969 M 11.875 15.957031 L 11.917969 16 L 11.875 15.957031 M 20.792969 15.957031 L 20.832031 16 Z M 20.792969 15.957031 "/>
<path style=" stroke:none;fill-rule:nonzero;fill:rgb(63.137255%,87.843137%,90.980392%);fill-opacity:1;" d="M 29.375 15.957031 L 29.417969 16 Z M 29.375 15.957031 "/>
<path style=" stroke:none;fill-rule:nonzero;fill:rgb(38.823529%,74.901961%,80%);fill-opacity:1;" d="M 11.917969 16 L 11.957031 16.042969 L 11.917969 16 M 20.832031 16 L 20.875 16.042969 L 20.832031 16 M 29.332031 16 L 29.375 16.042969 L 29.332031 16 M 11.957031 16.042969 L 12 16.082031 L 11.957031 16.042969 M 20.875 16.042969 L 20.917969 16.082031 Z M 20.875 16.042969 "/>
<path style=" stroke:none;fill-rule:nonzero;fill:rgb(63.137255%,87.843137%,90.980392%);fill-opacity:1;" d="M 20.917969 16.042969 L 20.957031 16.082031 L 20.917969 16.042969 M 29.25 16.042969 L 29.292969 16.082031 Z M 29.25 16.042969 "/>
<path style=" stroke:none;fill-rule:nonzero;fill:rgb(38.823529%,74.901961%,80%);fill-opacity:1;" d="M 29.292969 16.042969 L 29.332031 16.082031 L 29.292969 16.042969 M 12 16.082031 L 12.042969 16.125 Z M 12 16.082031 "/>
<path style=" stroke:none;fill-rule:nonzero;fill:rgb(63.137255%,87.843137%,90.980392%);fill-opacity:1;" d="M 20.957031 16.082031 L 21 16.125 L 20.957031 16.082031 M 29.207031 16.082031 L 29.25 16.125 L 29.207031 16.082031 M 12.042969 16.125 L 12.082031 16.167969 Z M 12.042969 16.125 "/>
<path style=" stroke:none;fill-rule:nonzero;fill:rgb(38.823529%,74.901961%,80%);fill-opacity:1;" d="M 21 16.125 L 21.042969 16.167969 L 21 16.125 M 29.167969 16.125 L 29.207031 16.167969 Z M 29.167969 16.125 "/>
<path style=" stroke:none;fill-rule:nonzero;fill:rgb(63.137255%,87.843137%,90.980392%);fill-opacity:1;" d="M 12.082031 16.167969 L 12.125 16.207031 Z M 12.082031 16.167969 "/>
<path style=" stroke:none;fill-rule:nonzero;fill:rgb(38.823529%,74.901961%,80%);fill-opacity:1;" d="M 21.042969 16.167969 L 21.082031 16.207031 Z M 21.042969 16.167969 "/>
<path style=" stroke:none;fill-rule:nonzero;fill:rgb(63.137255%,87.843137%,90.980392%);fill-opacity:1;" d="M 21.082031 16.167969 L 21.125 16.207031 Z M 21.082031 16.167969 "/>
<path style=" stroke:none;fill-rule:nonzero;fill:rgb(38.823529%,74.901961%,80%);fill-opacity:1;" d="M 29.125 16.167969 L 29.167969 16.207031 Z M 29.125 16.167969 "/>
<path style=" stroke:none;fill-rule:nonzero;fill:rgb(63.137255%,87.843137%,90.980392%);fill-opacity:1;" d="M 12.125 16.207031 L 12.167969 16.25 L 12.125 16.207031 M 21.125 16.207031 L 21.167969 16.25 L 21.125 16.207031 M 29.042969 16.207031 L 29.082031 16.25 L 29.042969 16.207031 M 12.167969 16.25 L 12.207031 16.292969 Z M 12.167969 16.25 "/>
<path style=" stroke:none;fill-rule:nonzero;fill:rgb(38.823529%,74.901961%,80%);fill-opacity:1;" d="M 21.167969 16.25 L 21.207031 16.292969 Z M 21.167969 16.25 "/>
<path style=" stroke:none;fill-rule:nonzero;fill:rgb(63.137255%,87.843137%,90.980392%);fill-opacity:1;" d="M 29 16.25 L 29.042969 16.292969 L 29 16.25 M 12.207031 16.292969 L 12.25 16.332031 Z M 12.207031 16.292969 "/>
<path style=" stroke:none;fill-rule:nonzero;fill:rgb(38.823529%,74.901961%,80%);fill-opacity:1;" d="M 21.207031 16.292969 L 21.25 16.332031 Z M 21.207031 16.292969 "/>
<path style=" stroke:none;fill-rule:nonzero;fill:rgb(63.137255%,87.843137%,90.980392%);fill-opacity:1;" d="M 21.25 16.292969 L 21.292969 16.332031 Z M 21.25 16.292969 "/>
<path style=" stroke:none;fill-rule:nonzero;fill:rgb(38.823529%,74.901961%,80%);fill-opacity:1;" d="M 28.957031 16.292969 L 29 16.332031 Z M 28.957031 16.292969 "/>
<path style=" stroke:none;fill-rule:nonzero;fill:rgb(63.137255%,87.843137%,90.980392%);fill-opacity:1;" d="M 12.25 16.332031 L 12.292969 16.375 L 12.25 16.332031 M 21.292969 16.332031 L 21.332031 16.375 L 21.292969 16.332031 M 28.875 16.332031 L 28.917969 16.375 Z M 28.875 16.332031 "/>
<path style=" stroke:none;fill-rule:nonzero;fill:rgb(38.823529%,74.901961%,80%);fill-opacity:1;" d="M 28.917969 16.332031 L 28.957031 16.375 Z M 28.917969 16.332031 "/>
<path style=" stroke:none;fill-rule:nonzero;fill:rgb(63.137255%,87.843137%,90.980392%);fill-opacity:1;" d="M 12.292969 16.375 L 12.332031 16.417969 Z M 12.292969 16.375 "/>
<path style=" stroke:none;fill-rule:nonzero;fill:rgb(38.823529%,74.901961%,80%);fill-opacity:1;" d="M 12.332031 16.375 L 12.375 16.417969 L 12.332031 16.375 M 21.332031 16.375 L 21.375 16.417969 Z M 21.332031 16.375 "/>
<path style=" stroke:none;fill-rule:nonzero;fill:rgb(63.137255%,87.843137%,90.980392%);fill-opacity:1;" d="M 28.832031 16.375 L 28.875 16.417969 Z M 28.832031 16.375 "/>
<path style=" stroke:none;fill-rule:nonzero;fill:rgb(38.823529%,74.901961%,80%);fill-opacity:1;" d="M 12.375 16.417969 L 12.417969 16.457031 L 12.375 16.417969 M 21.375 16.417969 L 21.457031 16.5 Z M 21.375 16.417969 "/>
<path style=" stroke:none;fill-rule:nonzero;fill:rgb(63.137255%,87.843137%,90.980392%);fill-opacity:1;" d="M 21.417969 16.417969 L 21.457031 16.457031 Z M 21.417969 16.417969 "/>
<path style=" stroke:none;fill-rule:nonzero;fill:rgb(38.823529%,74.901961%,80%);fill-opacity:1;" d="M 28.792969 16.417969 L 28.832031 16.457031 L 28.792969 16.417969 M 12.417969 16.457031 L 12.457031 16.5 Z M 12.417969 16.457031 "/>
<path style=" stroke:none;fill-rule:nonzero;fill:rgb(63.137255%,87.843137%,90.980392%);fill-opacity:1;" d="M 21.457031 16.457031 L 21.5 16.5 Z M 21.457031 16.457031 "/>
<path style=" stroke:none;fill-rule:nonzero;fill:rgb(38.823529%,74.901961%,80%);fill-opacity:1;" d="M 28.75 16.457031 L 28.792969 16.5 L 28.75 16.457031 M 12.457031 16.5 L 12.5 16.542969 L 12.457031 16.5 M 21.5 16.5 L 21.542969 16.542969 Z M 21.5 16.5 "/>
<path style=" stroke:none;fill-rule:nonzero;fill:rgb(63.137255%,87.843137%,90.980392%);fill-opacity:1;" d="M 28.667969 16.5 L 28.707031 16.542969 Z M 28.667969 16.5 "/>
<path style=" stroke:none;fill-rule:nonzero;fill:rgb(38.823529%,74.901961%,80%);fill-opacity:1;" d="M 12.5 16.542969 L 12.542969 16.582031 L 12.5 16.542969 M 21.542969 16.542969 L 21.582031 16.582031 L 21.542969 16.542969 M 28.625 16.542969 L 28.667969 16.582031 L 28.625 16.542969 M 12.542969 16.582031 L 12.582031 16.625 L 12.542969 16.582031 M 21.582031 16.582031 L 21.625 16.625 Z M 21.582031 16.582031 "/>
<path style=" stroke:none;fill-rule:nonzero;fill:rgb(63.137255%,87.843137%,90.980392%);fill-opacity:1;" d="M 21.625 16.582031 L 21.667969 16.625 Z M 21.625 16.582031 "/>
<path style=" stroke:none;fill-rule:nonzero;fill:rgb(38.823529%,74.901961%,80%);fill-opacity:1;" d="M 28.582031 16.582031 L 28.625 16.625 Z M 28.582031 16.582031 "/>
<path style=" stroke:none;fill-rule:nonzero;fill:rgb(63.137255%,87.843137%,90.980392%);fill-opacity:1;" d="M 12.582031 16.625 L 12.625 16.667969 L 12.582031 16.625 M 21.667969 16.625 L 21.707031 16.667969 L 21.667969 16.625 M 28.5 16.625 L 28.542969 16.667969 L 28.5 16.625 M 12.625 16.667969 L 12.667969 16.707031 Z M 12.625 16.667969 "/>
<path style=" stroke:none;fill-rule:nonzero;fill:rgb(38.823529%,74.901961%,80%);fill-opacity:1;" d="M 21.707031 16.667969 L 21.75 16.707031 Z M 21.707031 16.667969 "/>
<path style=" stroke:none;fill-rule:nonzero;fill:rgb(63.137255%,87.843137%,90.980392%);fill-opacity:1;" d="M 28.457031 16.667969 L 28.5 16.707031 L 28.457031 16.667969 M 12.667969 16.707031 L 12.707031 16.75 Z M 12.667969 16.707031 "/>
<path style=" stroke:none;fill-rule:nonzero;fill:rgb(38.823529%,74.901961%,80%);fill-opacity:1;" d="M 21.75 16.707031 L 21.792969 16.75 Z M 21.75 16.707031 "/>
<path style=" stroke:none;fill-rule:nonzero;fill:rgb(63.137255%,87.843137%,90.980392%);fill-opacity:1;" d="M 21.792969 16.707031 L 21.832031 16.75 Z M 21.792969 16.707031 "/>
<path style=" stroke:none;fill-rule:nonzero;fill:rgb(38.823529%,74.901961%,80%);fill-opacity:1;" d="M 28.417969 16.707031 L 28.457031 16.75 Z M 28.417969 16.707031 "/>
<path style=" stroke:none;fill-rule:nonzero;fill:rgb(63.137255%,87.843137%,90.980392%);fill-opacity:1;" d="M 12.707031 16.75 L 12.75 16.792969 L 12.707031 16.75 M 21.832031 16.75 L 21.875 16.792969 L 21.832031 16.75 M 12.75 16.792969 L 12.832031 16.875 Z M 12.75 16.792969 "/>
<path style=" stroke:none;fill-rule:nonzero;fill:rgb(38.823529%,74.901961%,80%);fill-opacity:1;" d="M 12.792969 16.792969 L 12.832031 16.832031 L 12.792969 16.792969 M 21.875 16.792969 L 21.917969 16.832031 Z M 21.875 16.792969 "/>
<path style=" stroke:none;fill-rule:nonzero;fill:rgb(63.137255%,87.843137%,90.980392%);fill-opacity:1;" d="M 28.292969 16.792969 L 28.332031 16.832031 Z M 28.292969 16.792969 "/>
<path style=" stroke:none;fill-rule:nonzero;fill:rgb(38.823529%,74.901961%,80%);fill-opacity:1;" d="M 21.917969 16.832031 L 21.957031 16.875 L 21.917969 16.832031 M 28.25 16.832031 L 28.292969 16.875 L 28.25 16.832031 M 12.875 16.875 L 12.957031 16.957031 Z M 12.875 16.875 "/>
<path style=" stroke:none;fill-rule:nonzero;fill:rgb(63.137255%,87.843137%,90.980392%);fill-opacity:1;" d="M 22 16.875 L 22.042969 16.917969 Z M 22 16.875 "/>
<path style=" stroke:none;fill-rule:nonzero;fill:rgb(38.823529%,74.901961%,80%);fill-opacity:1;" d="M 28.207031 16.875 L 28.25 16.917969 Z M 28.207031 16.875 "/>
<path style=" stroke:none;fill-rule:nonzero;fill:rgb(63.137255%,87.843137%,90.980392%);fill-opacity:1;" d="M 12.875 16.917969 L 12.917969 16.957031 L 12.875 16.917969 M 22.042969 16.917969 L 22.082031 16.957031 L 22.042969 16.917969 M 28.125 16.917969 L 28.167969 16.957031 Z M 28.125 16.917969 "/>
<path style=" stroke:none;fill-rule:nonzero;fill:rgb(38.823529%,74.901961%,80%);fill-opacity:1;" d="M 12.957031 16.957031 L 13 17 L 12.957031 16.957031 M 22.082031 16.957031 L 22.125 17 Z M 22.082031 16.957031 "/>
<path style=" stroke:none;fill-rule:nonzero;fill:rgb(63.137255%,87.843137%,90.980392%);fill-opacity:1;" d="M 28.082031 16.957031 L 28.125 17 Z M 28.082031 16.957031 "/>
<path style=" stroke:none;fill-rule:nonzero;fill:rgb(38.823529%,74.901961%,80%);fill-opacity:1;" d="M 13 17 L 13.042969 17.042969 Z M 13 17 "/>
<path style=" stroke:none;fill-rule:nonzero;fill:rgb(63.137255%,87.843137%,90.980392%);fill-opacity:1;" d="M 22.167969 17 L 22.207031 17.042969 Z M 22.167969 17 "/>
<path style=" stroke:none;fill-rule:nonzero;fill:rgb(38.823529%,74.901961%,80%);fill-opacity:1;" d="M 28.042969 17 L 28.082031 17.042969 L 28.042969 17 M 13.042969 17.042969 L 13.082031 17.082031 Z M 13.042969 17.042969 "/>
<path style=" stroke:none;fill-rule:nonzero;fill:rgb(63.137255%,87.843137%,90.980392%);fill-opacity:1;" d="M 22.207031 17.042969 L 22.25 17.082031 L 22.207031 17.042969 M 27.957031 17.042969 L 28 17.082031 Z M 27.957031 17.042969 "/>
<path style=" stroke:none;fill-rule:nonzero;fill:rgb(38.823529%,74.901961%,80%);fill-opacity:1;" d="M 13.082031 17.082031 L 13.125 17.125 L 13.082031 17.082031 M 22.25 17.082031 L 22.292969 17.125 Z M 22.25 17.082031 "/>
<path style=" stroke:none;fill-rule:nonzero;fill:rgb(63.137255%,87.843137%,90.980392%);fill-opacity:1;" d="M 27.917969 17.082031 L 27.957031 17.125 L 27.917969 17.082031 M 13.125 17.125 L 13.167969 17.167969 Z M 13.125 17.125 "/>
<path style=" stroke:none;fill-rule:nonzero;fill:rgb(38.823529%,74.901961%,80%);fill-opacity:1;" d="M 22.292969 17.125 L 22.332031 17.167969 Z M 22.292969 17.125 "/>
<path style=" stroke:none;fill-rule:nonzero;fill:rgb(63.137255%,87.843137%,90.980392%);fill-opacity:1;" d="M 22.332031 17.125 L 22.375 17.167969 Z M 22.332031 17.125 "/>
<path style=" stroke:none;fill-rule:nonzero;fill:rgb(38.823529%,74.901961%,80%);fill-opacity:1;" d="M 27.875 17.125 L 27.917969 17.167969 Z M 27.875 17.125 "/>
<path style=" stroke:none;fill-rule:nonzero;fill:rgb(63.137255%,87.843137%,90.980392%);fill-opacity:1;" d="M 13.167969 17.167969 L 13.207031 17.207031 L 13.167969 17.167969 M 22.375 17.167969 L 22.417969 17.207031 L 22.375 17.167969 M 27.792969 17.167969 L 27.832031 17.207031 Z M 27.792969 17.167969 "/>
<path style=" stroke:none;fill-rule:nonzero;fill:rgb(38.823529%,74.901961%,80%);fill-opacity:1;" d="M 27.832031 17.167969 L 27.875 17.207031 Z M 27.832031 17.167969 "/>
<path style=" stroke:none;fill-rule:nonzero;fill:rgb(63.137255%,87.843137%,90.980392%);fill-opacity:1;" d="M 13.207031 17.207031 L 13.25 17.25 Z M 13.207031 17.207031 "/>
<path style=" stroke:none;fill-rule:nonzero;fill:rgb(38.823529%,74.901961%,80%);fill-opacity:1;" d="M 22.417969 17.207031 L 22.457031 17.25 Z M 22.417969 17.207031 "/>
<path style=" stroke:none;fill-rule:nonzero;fill:rgb(63.137255%,87.843137%,90.980392%);fill-opacity:1;" d="M 27.75 17.207031 L 27.792969 17.25 L 27.75 17.207031 M 13.25 17.25 L 13.292969 17.292969 Z M 13.25 17.25 "/>
<path style=" stroke:none;fill-rule:nonzero;fill:rgb(38.823529%,74.901961%,80%);fill-opacity:1;" d="M 22.457031 17.25 L 22.542969 17.332031 Z M 22.457031 17.25 "/>
<path style=" stroke:none;fill-rule:nonzero;fill:rgb(63.137255%,87.843137%,90.980392%);fill-opacity:1;" d="M 22.5 17.25 L 22.542969 17.292969 L 22.5 17.25 M 27.707031 17.25 L 27.75 17.292969 L 27.707031 17.25 M 13.292969 17.292969 L 13.332031 17.332031 L 13.292969 17.292969 M 22.542969 17.292969 L 22.582031 17.332031 Z M 22.542969 17.292969 "/>
<path style=" stroke:none;fill-rule:nonzero;fill:rgb(38.823529%,74.901961%,80%);fill-opacity:1;" d="M 27.667969 17.292969 L 27.707031 17.332031 Z M 27.667969 17.292969 "/>
<path style=" stroke:none;fill-rule:nonzero;fill:rgb(63.137255%,87.843137%,90.980392%);fill-opacity:1;" d="M 13.332031 17.332031 L 13.375 17.375 Z M 13.332031 17.332031 "/>
<path style=" stroke:none;fill-rule:nonzero;fill:rgb(38.823529%,74.901961%,80%);fill-opacity:1;" d="M 22.582031 17.332031 L 22.625 17.375 Z M 22.582031 17.332031 "/>
<path style=" stroke:none;fill-rule:nonzero;fill:rgb(63.137255%,87.843137%,90.980392%);fill-opacity:1;" d="M 27.582031 17.332031 L 27.625 17.375 L 27.582031 17.332031 M 13.375 17.375 L 13.457031 17.457031 Z M 13.375 17.375 "/>
<path style=" stroke:none;fill-rule:nonzero;fill:rgb(38.823529%,74.901961%,80%);fill-opacity:1;" d="M 13.417969 17.375 L 13.457031 17.417969 L 13.417969 17.375 M 22.625 17.375 L 22.707031 17.457031 Z M 22.625 17.375 "/>
<path style=" stroke:none;fill-rule:nonzero;fill:rgb(63.137255%,87.843137%,90.980392%);fill-opacity:1;" d="M 22.667969 17.375 L 22.707031 17.417969 L 22.667969 17.375 M 27.542969 17.375 L 27.582031 17.417969 Z M 27.542969 17.375 "/>
<path style=" stroke:none;fill-rule:nonzero;fill:rgb(38.823529%,74.901961%,80%);fill-opacity:1;" d="M 13.457031 17.417969 L 13.5 17.457031 Z M 13.457031 17.417969 "/>
<path style=" stroke:none;fill-rule:nonzero;fill:rgb(63.137255%,87.843137%,90.980392%);fill-opacity:1;" d="M 22.707031 17.417969 L 22.75 17.457031 Z M 22.707031 17.417969 "/>
<path style=" stroke:none;fill-rule:nonzero;fill:rgb(38.823529%,74.901961%,80%);fill-opacity:1;" d="M 27.5 17.417969 L 27.542969 17.457031 L 27.5 17.417969 M 13.5 17.457031 L 13.542969 17.5 Z M 13.5 17.457031 "/>
<path style=" stroke:none;fill-rule:nonzero;fill:rgb(63.137255%,87.843137%,90.980392%);fill-opacity:1;" d="M 22.75 17.457031 L 22.792969 17.5 Z M 22.75 17.457031 "/>
<path style=" stroke:none;fill-rule:nonzero;fill:rgb(38.823529%,74.901961%,80%);fill-opacity:1;" d="M 27.457031 17.457031 L 27.5 17.5 L 27.457031 17.457031 M 13.542969 17.5 L 13.582031 17.542969 L 13.542969 17.5 M 22.792969 17.5 L 22.832031 17.542969 Z M 22.792969 17.5 "/>
<path style=" stroke:none;fill-rule:nonzero;fill:rgb(63.137255%,87.843137%,90.980392%);fill-opacity:1;" d="M 27.375 17.5 L 27.417969 17.542969 Z M 27.375 17.5 "/>
<path style=" stroke:none;fill-rule:nonzero;fill:rgb(38.823529%,74.901961%,80%);fill-opacity:1;" d="M 13.582031 17.542969 L 13.625 17.582031 L 13.582031 17.542969 M 22.832031 17.542969 L 22.875 17.582031 Z M 22.832031 17.542969 "/>
<path style=" stroke:none;fill-rule:nonzero;fill:rgb(63.137255%,87.843137%,90.980392%);fill-opacity:1;" d="M 22.875 17.542969 L 22.917969 17.582031 L 22.875 17.542969 M 27.332031 17.542969 L 27.375 17.582031 Z M 27.332031 17.542969 "/>
<path style=" stroke:none;fill-rule:nonzero;fill:rgb(38.823529%,74.901961%,80%);fill-opacity:1;" d="M 13.625 17.582031 L 13.667969 17.625 Z M 13.625 17.582031 "/>
<path style=" stroke:none;fill-rule:nonzero;fill:rgb(63.137255%,87.843137%,90.980392%);fill-opacity:1;" d="M 22.917969 17.582031 L 22.957031 17.625 Z M 22.917969 17.582031 "/>
<path style=" stroke:none;fill-rule:nonzero;fill:rgb(38.823529%,74.901961%,80%);fill-opacity:1;" d="M 27.292969 17.582031 L 27.332031 17.625 Z M 27.292969 17.582031 "/>
<path style=" stroke:none;fill-rule:nonzero;fill:rgb(63.137255%,87.843137%,90.980392%);fill-opacity:1;" d="M 13.667969 17.625 L 13.707031 17.667969 Z M 13.667969 17.625 "/>
<path style=" stroke:none;fill-rule:nonzero;fill:rgb(38.823529%,74.901961%,80%);fill-opacity:1;" d="M 22.957031 17.625 L 23 17.667969 Z M 22.957031 17.625 "/>
<path style=" stroke:none;fill-rule:nonzero;fill:rgb(63.137255%,87.843137%,90.980392%);fill-opacity:1;" d="M 27.207031 17.625 L 27.25 17.667969 L 27.207031 17.625 M 13.707031 17.667969 L 13.75 17.707031 Z M 13.707031 17.667969 "/>
<path style=" stroke:none;fill-rule:nonzero;fill:rgb(38.823529%,74.901961%,80%);fill-opacity:1;" d="M 23 17.667969 L 23.042969 17.707031 Z M 23 17.667969 "/>
<path style=" stroke:none;fill-rule:nonzero;fill:rgb(63.137255%,87.843137%,90.980392%);fill-opacity:1;" d="M 23.042969 17.667969 L 23.082031 17.707031 L 23.042969 17.667969 M 27.167969 17.667969 L 27.207031 17.707031 L 27.167969 17.667969 M 13.75 17.707031 L 13.792969 17.75 L 13.75 17.707031 M 23.082031 17.707031 L 23.125 17.75 Z M 23.082031 17.707031 "/>
<path style=" stroke:none;fill-rule:nonzero;fill:rgb(38.823529%,74.901961%,80%);fill-opacity:1;" d="M 27.125 17.707031 L 27.167969 17.75 Z M 27.125 17.707031 "/>
<path style=" stroke:none;fill-rule:nonzero;fill:rgb(63.137255%,87.843137%,90.980392%);fill-opacity:1;" d="M 13.792969 17.75 L 13.832031 17.792969 Z M 13.792969 17.75 "/>
<path style=" stroke:none;fill-rule:nonzero;fill:rgb(38.823529%,74.901961%,80%);fill-opacity:1;" d="M 23.125 17.75 L 23.167969 17.792969 Z M 23.125 17.75 "/>
<path style=" stroke:none;fill-rule:nonzero;fill:rgb(63.137255%,87.843137%,90.980392%);fill-opacity:1;" d="M 27.042969 17.75 L 27.082031 17.792969 L 27.042969 17.75 M 13.832031 17.792969 L 13.875 17.832031 Z M 13.832031 17.792969 "/>
<path style=" stroke:none;fill-rule:nonzero;fill:rgb(38.823529%,74.901961%,80%);fill-opacity:1;" d="M 23.167969 17.792969 L 23.25 17.875 Z M 23.167969 17.792969 "/>
<path style=" stroke:none;fill-rule:nonzero;fill:rgb(63.137255%,87.843137%,90.980392%);fill-opacity:1;" d="M 23.207031 17.792969 L 23.25 17.832031 L 23.207031 17.792969 M 27 17.792969 L 27.042969 17.832031 L 27 17.792969 M 13.875 17.832031 L 13.917969 17.875 L 13.875 17.832031 M 23.25 17.832031 L 23.292969 17.875 Z M 23.25 17.832031 "/>
<path style=" stroke:none;fill-rule:nonzero;fill:rgb(38.823529%,74.901961%,80%);fill-opacity:1;" d="M 26.957031 17.832031 L 27 17.875 Z M 26.957031 17.832031 "/>
<path style=" stroke:none;fill-rule:nonzero;fill:rgb(63.137255%,87.843137%,90.980392%);fill-opacity:1;" d="M 13.917969 17.875 L 13.957031 17.917969 Z M 13.917969 17.875 "/>
<path style=" stroke:none;fill-rule:nonzero;fill:rgb(38.823529%,74.901961%,80%);fill-opacity:1;" d="M 13.957031 17.875 L 14 17.917969 Z M 13.957031 17.875 "/>
<path style=" stroke:none;fill-rule:nonzero;fill:rgb(63.137255%,87.843137%,90.980392%);fill-opacity:1;" d="M 23.292969 17.875 L 23.332031 17.917969 L 23.292969 17.875 M 26.875 17.875 L 26.917969 17.917969 Z M 26.875 17.875 "/>
<path style=" stroke:none;fill-rule:nonzero;fill:rgb(38.823529%,74.901961%,80%);fill-opacity:1;" d="M 26.917969 17.875 L 26.957031 17.917969 L 26.917969 17.875 M 14 17.917969 L 14.042969 17.957031 L 14 17.917969 M 23.332031 17.917969 L 23.375 17.957031 Z M 23.332031 17.917969 "/>
<path style=" stroke:none;fill-rule:nonzero;fill:rgb(63.137255%,87.843137%,90.980392%);fill-opacity:1;" d="M 26.832031 17.917969 L 26.875 17.957031 Z M 26.832031 17.917969 "/>
<path style=" stroke:none;fill-rule:nonzero;fill:rgb(38.823529%,74.901961%,80%);fill-opacity:1;" d="M 14.042969 17.957031 L 14.082031 18 L 14.042969 17.957031 M 23.375 17.957031 L 23.417969 18 Z M 23.375 17.957031 "/>
<path style=" stroke:none;fill-rule:nonzero;fill:rgb(63.137255%,87.843137%,90.980392%);fill-opacity:1;" d="M 23.417969 17.957031 L 23.457031 18 L 23.417969 17.957031 M 26.792969 17.957031 L 26.832031 18 Z M 26.792969 17.957031 "/>
<path style=" stroke:none;fill-rule:nonzero;fill:rgb(38.823529%,74.901961%,80%);fill-opacity:1;" d="M 14.082031 18 L 14.125 18.042969 Z M 14.082031 18 "/>
<path style=" stroke:none;fill-rule:nonzero;fill:rgb(63.137255%,87.843137%,90.980392%);fill-opacity:1;" d="M 23.457031 18 L 23.5 18.042969 Z M 23.457031 18 "/>
<path style=" stroke:none;fill-rule:nonzero;fill:rgb(38.823529%,74.901961%,80%);fill-opacity:1;" d="M 26.75 18 L 26.792969 18.042969 L 26.75 18 M 14.125 18.042969 L 14.167969 18.082031 L 14.125 18.042969 M 23.5 18.042969 L 23.542969 18.082031 Z M 23.5 18.042969 "/>
<path style=" stroke:none;fill-rule:nonzero;fill:rgb(63.137255%,87.843137%,90.980392%);fill-opacity:1;" d="M 26.667969 18.042969 L 26.707031 18.082031 Z M 26.667969 18.042969 "/>
<path style=" stroke:none;fill-rule:nonzero;fill:rgb(38.823529%,74.901961%,80%);fill-opacity:1;" d="M 14.167969 18.082031 L 14.207031 18.125 L 14.167969 18.082031 M 23.542969 18.082031 L 23.582031 18.125 Z M 23.542969 18.082031 "/>
<path style=" stroke:none;fill-rule:nonzero;fill:rgb(63.137255%,87.843137%,90.980392%);fill-opacity:1;" d="M 23.582031 18.082031 L 23.625 18.125 L 23.582031 18.082031 M 26.625 18.082031 L 26.667969 18.125 L 26.625 18.082031 M 14.207031 18.125 L 14.25 18.167969 L 14.207031 18.125 M 23.625 18.125 L 23.667969 18.167969 Z M 23.625 18.125 "/>
<path style=" stroke:none;fill-rule:nonzero;fill:rgb(38.823529%,74.901961%,80%);fill-opacity:1;" d="M 26.582031 18.125 L 26.625 18.167969 Z M 26.582031 18.125 "/>
<path style=" stroke:none;fill-rule:nonzero;fill:rgb(63.137255%,87.843137%,90.980392%);fill-opacity:1;" d="M 14.25 18.167969 L 14.292969 18.207031 L 14.25 18.167969 M 23.667969 18.167969 L 23.707031 18.207031 L 23.667969 18.167969 M 26.5 18.167969 L 26.542969 18.207031 Z M 26.5 18.167969 "/>
<path style=" stroke:none;fill-rule:nonzero;fill:rgb(38.823529%,74.901961%,80%);fill-opacity:1;" d="M 26.542969 18.167969 L 26.582031 18.207031 Z M 26.542969 18.167969 "/>
<path style=" stroke:none;fill-rule:nonzero;fill:rgb(63.137255%,87.843137%,90.980392%);fill-opacity:1;" d="M 14.292969 18.207031 L 14.332031 18.25 Z M 14.292969 18.207031 "/>
<path style=" stroke:none;fill-rule:nonzero;fill:rgb(38.823529%,74.901961%,80%);fill-opacity:1;" d="M 23.707031 18.207031 L 23.75 18.25 Z M 23.707031 18.207031 "/>
<path style=" stroke:none;fill-rule:nonzero;fill:rgb(63.137255%,87.843137%,90.980392%);fill-opacity:1;" d="M 26.457031 18.207031 L 26.5 18.25 L 26.457031 18.207031 M 14.332031 18.25 L 14.375 18.292969 L 14.332031 18.25 M 23.792969 18.25 L 23.832031 18.292969 Z M 23.792969 18.25 "/>
<path style=" stroke:none;fill-rule:nonzero;fill:rgb(38.823529%,74.901961%,80%);fill-opacity:1;" d="M 26.417969 18.25 L 26.457031 18.292969 Z M 26.417969 18.25 "/>
<path style=" stroke:none;fill-rule:nonzero;fill:rgb(63.137255%,87.843137%,90.980392%);fill-opacity:1;" d="M 14.375 18.292969 L 14.457031 18.375 Z M 14.375 18.292969 "/>
<path style=" stroke:none;fill-rule:nonzero;fill:rgb(38.823529%,74.901961%,80%);fill-opacity:1;" d="M 14.417969 18.292969 L 14.457031 18.332031 Z M 14.417969 18.292969 "/>
<path style=" stroke:none;fill-rule:nonzero;fill:rgb(63.137255%,87.843137%,90.980392%);fill-opacity:1;" d="M 23.832031 18.292969 L 23.875 18.332031 Z M 23.832031 18.292969 "/>
<path style=" stroke:none;fill-rule:nonzero;fill:rgb(38.823529%,74.901961%,80%);fill-opacity:1;" d="M 26.375 18.292969 L 26.417969 18.332031 L 26.375 18.292969 M 23.875 18.332031 L 23.917969 18.375 Z M 23.875 18.332031 "/>
<path style=" stroke:none;fill-rule:nonzero;fill:rgb(63.137255%,87.843137%,90.980392%);fill-opacity:1;" d="M 26.292969 18.332031 L 26.332031 18.375 Z M 26.292969 18.332031 "/>
<path style=" stroke:none;fill-rule:nonzero;fill:rgb(38.823529%,74.901961%,80%);fill-opacity:1;" d="M 14.5 18.375 L 14.582031 18.457031 L 14.5 18.375 M 23.917969 18.375 L 23.957031 18.417969 Z M 23.917969 18.375 "/>
<path style=" stroke:none;fill-rule:nonzero;fill:rgb(63.137255%,87.843137%,90.980392%);fill-opacity:1;" d="M 23.957031 18.375 L 24 18.417969 Z M 23.957031 18.375 "/>
<path style=" stroke:none;fill-rule:nonzero;fill:rgb(38.823529%,74.901961%,80%);fill-opacity:1;" d="M 26.25 18.375 L 26.292969 18.417969 Z M 26.25 18.375 "/>
<path style=" stroke:none;fill-rule:nonzero;fill:rgb(63.137255%,87.843137%,90.980392%);fill-opacity:1;" d="M 14.5 18.417969 L 14.542969 18.457031 L 14.5 18.417969 M 24 18.417969 L 24.042969 18.457031 Z M 24 18.417969 "/>
<path style=" stroke:none;fill-rule:nonzero;fill:rgb(38.823529%,74.901961%,80%);fill-opacity:1;" d="M 26.207031 18.417969 L 26.25 18.457031 L 26.207031 18.417969 M 14.582031 18.457031 L 14.625 18.5 L 14.582031 18.457031 M 24.042969 18.457031 L 24.082031 18.5 Z M 24.042969 18.457031 "/>
<path style=" stroke:none;fill-rule:nonzero;fill:rgb(63.137255%,87.843137%,90.980392%);fill-opacity:1;" d="M 26.125 18.457031 L 26.167969 18.5 Z M 26.125 18.457031 "/>
<path style=" stroke:none;fill-rule:nonzero;fill:rgb(38.823529%,74.901961%,80%);fill-opacity:1;" d="M 26.167969 18.457031 L 26.207031 18.5 L 26.167969 18.457031 M 14.625 18.5 L 14.667969 18.542969 L 14.625 18.5 M 24.082031 18.5 L 24.125 18.542969 Z M 24.082031 18.5 "/>
<path style=" stroke:none;fill-rule:nonzero;fill:rgb(63.137255%,87.843137%,90.980392%);fill-opacity:1;" d="M 24.125 18.5 L 24.167969 18.542969 L 24.125 18.5 M 26.082031 18.5 L 26.125 18.542969 Z M 26.082031 18.5 "/>
<path style=" stroke:none;fill-rule:nonzero;fill:rgb(38.823529%,74.901961%,80%);fill-opacity:1;" d="M 14.667969 18.542969 L 14.707031 18.582031 Z M 14.667969 18.542969 "/>
<path style=" stroke:none;fill-rule:nonzero;fill:rgb(63.137255%,87.843137%,90.980392%);fill-opacity:1;" d="M 24.167969 18.542969 L 24.207031 18.582031 Z M 24.167969 18.542969 "/>
<path style=" stroke:none;fill-rule:nonzero;fill:rgb(38.823529%,74.901961%,80%);fill-opacity:1;" d="M 26.042969 18.542969 L 26.082031 18.582031 L 26.042969 18.542969 M 14.707031 18.582031 L 14.75 18.625 L 14.707031 18.582031 M 24.207031 18.582031 L 24.25 18.625 L 24.207031 18.582031 M 26 18.582031 L 26.042969 18.625 Z M 26 18.582031 "/>
<path style=" stroke:none;fill-rule:nonzero;fill:rgb(63.137255%,87.843137%,90.980392%);fill-opacity:1;" d="M 14.75 18.625 L 14.792969 18.667969 Z M 14.75 18.625 "/>
<path style=" stroke:none;fill-rule:nonzero;fill:rgb(38.823529%,74.901961%,80%);fill-opacity:1;" d="M 24.25 18.625 L 24.332031 18.707031 Z M 24.25 18.625 "/>
<path style=" stroke:none;fill-rule:nonzero;fill:rgb(63.137255%,87.843137%,90.980392%);fill-opacity:1;" d="M 24.292969 18.625 L 24.332031 18.667969 L 24.292969 18.625 M 25.917969 18.625 L 25.957031 18.667969 L 25.917969 18.625 M 14.792969 18.667969 L 14.832031 18.707031 L 14.792969 18.667969 M 24.332031 18.667969 L 24.375 18.707031 Z M 24.332031 18.667969 "/>
<path style=" stroke:none;fill-rule:nonzero;fill:rgb(38.823529%,74.901961%,80%);fill-opacity:1;" d="M 25.875 18.667969 L 25.917969 18.707031 Z M 25.875 18.667969 "/>
<path style=" stroke:none;fill-rule:nonzero;fill:rgb(63.137255%,87.843137%,90.980392%);fill-opacity:1;" d="M 14.832031 18.707031 L 14.875 18.75 L 14.832031 18.707031 M 24.375 18.707031 L 24.417969 18.75 Z M 24.375 18.707031 "/>
<path style=" stroke:none;fill-rule:nonzero;fill:rgb(38.823529%,74.901961%,80%);fill-opacity:1;" d="M 25.832031 18.707031 L 25.875 18.75 Z M 25.832031 18.707031 "/>
<path style=" stroke:none;fill-rule:nonzero;fill:rgb(63.137255%,87.843137%,90.980392%);fill-opacity:1;" d="M 14.875 18.75 L 14.917969 18.792969 Z M 14.875 18.75 "/>
<path style=" stroke:none;fill-rule:nonzero;fill:rgb(38.823529%,74.901961%,80%);fill-opacity:1;" d="M 24.417969 18.75 L 24.457031 18.792969 Z M 24.417969 18.75 "/>
<path style=" stroke:none;fill-rule:nonzero;fill:rgb(63.137255%,87.843137%,90.980392%);fill-opacity:1;" d="M 25.75 18.75 L 25.792969 18.792969 L 25.75 18.75 M 14.917969 18.792969 L 14.957031 18.832031 Z M 14.917969 18.792969 "/>
<path style=" stroke:none;fill-rule:nonzero;fill:rgb(38.823529%,74.901961%,80%);fill-opacity:1;" d="M 24.457031 18.792969 L 24.5 18.832031 Z M 24.457031 18.792969 "/>
<path style=" stroke:none;fill-rule:nonzero;fill:rgb(63.137255%,87.843137%,90.980392%);fill-opacity:1;" d="M 24.5 18.792969 L 24.542969 18.832031 L 24.5 18.792969 M 25.707031 18.792969 L 25.75 18.832031 L 25.707031 18.792969 M 14.957031 18.832031 L 15 18.875 L 14.957031 18.832031 M 24.542969 18.832031 L 24.582031 18.875 Z M 24.542969 18.832031 "/>
<path style=" stroke:none;fill-rule:nonzero;fill:rgb(38.823529%,74.901961%,80%);fill-opacity:1;" d="M 25.667969 18.832031 L 25.707031 18.875 Z M 25.667969 18.832031 "/>
<path style=" stroke:none;fill-rule:nonzero;fill:rgb(63.137255%,87.843137%,90.980392%);fill-opacity:1;" d="M 15 18.875 L 15.082031 18.957031 Z M 15 18.875 "/>
<path style=" stroke:none;fill-rule:nonzero;fill:rgb(38.823529%,74.901961%,80%);fill-opacity:1;" d="M 15.042969 18.875 L 15.082031 18.917969 L 15.042969 18.875 M 24.582031 18.875 L 24.625 18.917969 L 24.582031 18.875 M 15.082031 18.917969 L 15.125 18.957031 L 15.082031 18.917969 M 24.625 18.917969 L 24.667969 18.957031 Z M 24.625 18.917969 "/>
<path style=" stroke:none;fill-rule:nonzero;fill:rgb(63.137255%,87.843137%,90.980392%);fill-opacity:1;" d="M 24.667969 18.917969 L 24.707031 18.957031 L 24.667969 18.917969 M 25.542969 18.917969 L 25.582031 18.957031 Z M 25.542969 18.917969 "/>
<path style=" stroke:none;fill-rule:nonzero;fill:rgb(38.823529%,74.901961%,80%);fill-opacity:1;" d="M 15.125 18.957031 L 15.167969 19 Z M 15.125 18.957031 "/>
<path style=" stroke:none;fill-rule:nonzero;fill:rgb(63.137255%,87.843137%,90.980392%);fill-opacity:1;" d="M 24.707031 18.957031 L 24.75 19 Z M 24.707031 18.957031 "/>
<path style=" stroke:none;fill-rule:nonzero;fill:rgb(38.823529%,74.901961%,80%);fill-opacity:1;" d="M 25.5 18.957031 L 25.542969 19 L 25.5 18.957031 M 15.167969 19 L 15.207031 19.042969 L 15.167969 19 M 24.75 19 L 24.792969 19.042969 L 24.75 19 M 25.457031 19 L 25.5 19.042969 L 25.457031 19 M 15.207031 19.042969 L 15.25 19.082031 L 15.207031 19.042969 M 24.792969 19.042969 L 24.832031 19.082031 Z M 24.792969 19.042969 "/>
<path style=" stroke:none;fill-rule:nonzero;fill:rgb(63.137255%,87.843137%,90.980392%);fill-opacity:1;" d="M 24.832031 19.042969 L 24.875 19.082031 L 24.832031 19.042969 M 25.375 19.042969 L 25.417969 19.082031 Z M 25.375 19.042969 "/>
<path style=" stroke:none;fill-rule:nonzero;fill:rgb(38.823529%,74.901961%,80%);fill-opacity:1;" d="M 15.25 19.082031 L 15.292969 19.125 Z M 15.25 19.082031 "/>
<path style=" stroke:none;fill-rule:nonzero;fill:rgb(63.137255%,87.843137%,90.980392%);fill-opacity:1;" d="M 24.875 19.082031 L 24.917969 19.125 L 24.875 19.082031 M 25.332031 19.082031 L 25.375 19.125 L 25.332031 19.082031 M 15.292969 19.125 L 15.332031 19.167969 L 15.292969 19.125 M 24.917969 19.125 L 24.957031 19.167969 Z M 24.917969 19.125 "/>
<path style=" stroke:none;fill-rule:nonzero;fill:rgb(38.823529%,74.901961%,80%);fill-opacity:1;" d="M 25.292969 19.125 L 25.332031 19.167969 Z M 25.292969 19.125 "/>
<path style=" stroke:none;fill-rule:nonzero;fill:rgb(63.137255%,87.843137%,90.980392%);fill-opacity:1;" d="M 15.332031 19.167969 L 15.375 19.207031 Z M 15.332031 19.167969 "/>
<path style=" stroke:none;fill-rule:nonzero;fill:rgb(38.823529%,74.901961%,80%);fill-opacity:1;" d="M 24.957031 19.167969 L 25 19.207031 Z M 24.957031 19.167969 "/>
<path style=" stroke:none;fill-rule:nonzero;fill:rgb(63.137255%,87.843137%,90.980392%);fill-opacity:1;" d="M 25.207031 19.167969 L 25.25 19.207031 L 25.207031 19.167969 M 15.375 19.207031 L 15.417969 19.25 Z M 15.375 19.207031 "/>
<path style=" stroke:none;fill-rule:nonzero;fill:rgb(38.823529%,74.901961%,80%);fill-opacity:1;" d="M 25 19.207031 L 25.042969 19.25 Z M 25 19.207031 "/>
<path style=" stroke:none;fill-rule:nonzero;fill:rgb(63.137255%,87.843137%,90.980392%);fill-opacity:1;" d="M 25.042969 19.207031 L 25.082031 19.25 L 25.042969 19.207031 M 25.167969 19.207031 L 25.207031 19.25 L 25.167969 19.207031 M 15.417969 19.25 L 15.457031 19.292969 L 15.417969 19.25 M 25.082031 19.25 L 25.125 19.292969 Z M 25.082031 19.25 "/>
<path style=" stroke:none;fill-rule:nonzero;fill:rgb(38.823529%,74.901961%,80%);fill-opacity:1;" d="M 25.125 19.25 L 25.167969 19.292969 Z M 25.125 19.25 "/>
<path style=" stroke:none;fill-rule:nonzero;fill:rgb(63.137255%,87.843137%,90.980392%);fill-opacity:1;" d="M 15.457031 19.292969 L 15.5 19.332031 L 15.457031 19.292969 M 15.5 19.332031 L 15.542969 19.375 L 15.5 19.332031 M 15.542969 19.375 L 15.582031 19.417969 Z M 15.542969 19.375 "/>
<path style=" stroke:none;fill-rule:nonzero;fill:rgb(38.823529%,74.901961%,80%);fill-opacity:1;" d="M 15.582031 19.375 L 15.625 19.417969 L 15.582031 19.375 M 15.625 19.417969 L 15.667969 19.457031 L 15.625 19.417969 M 15.667969 19.457031 L 15.707031 19.5 L 15.667969 19.457031 M 15.707031 19.5 L 15.75 19.542969 L 15.707031 19.5 M 15.75 19.542969 L 15.792969 19.582031 L 15.75 19.542969 M 15.792969 19.582031 L 15.832031 19.625 Z M 15.792969 19.582031 "/>
<path style=" stroke:none;fill-rule:nonzero;fill:rgb(63.137255%,87.843137%,90.980392%);fill-opacity:1;" d="M 15.832031 19.625 L 15.875 19.667969 L 15.832031 19.625 M 15.875 19.667969 L 15.917969 19.707031 L 15.875 19.667969 M 15.917969 19.707031 L 15.957031 19.75 L 15.917969 19.707031 M 15.957031 19.75 L 16 19.792969 L 15.957031 19.75 M 16 19.792969 L 16.082031 19.875 Z M 16 19.792969 "/>
<path style=" stroke:none;fill-rule:nonzero;fill:rgb(38.823529%,74.901961%,80%);fill-opacity:1;" d="M 16.042969 19.792969 L 16.082031 19.832031 L 16.042969 19.792969 M 16.125 19.875 L 16.207031 19.957031 Z M 16.125 19.875 "/>
<path style=" stroke:none;fill-rule:nonzero;fill:rgb(63.137255%,87.843137%,90.980392%);fill-opacity:1;" d="M 16.125 19.917969 L 16.167969 19.957031 Z M 16.125 19.917969 "/>
<path style=" stroke:none;fill-rule:nonzero;fill:rgb(38.823529%,74.901961%,80%);fill-opacity:1;" d="M 16.207031 19.957031 L 16.25 20 L 16.207031 19.957031 M 16.25 20 L 16.292969 20.042969 L 16.25 20 M 16.292969 20.042969 L 16.332031 20.082031 L 16.292969 20.042969 M 16.332031 20.082031 L 16.375 20.125 Z M 16.332031 20.082031 "/>
<path style=" stroke:none;fill-rule:nonzero;fill:rgb(63.137255%,87.843137%,90.980392%);fill-opacity:1;" d="M 16.375 20.125 L 16.417969 20.167969 L 16.375 20.125 M 16.417969 20.167969 L 16.457031 20.207031 L 16.417969 20.167969 M 16.457031 20.207031 L 16.5 20.25 L 16.457031 20.207031 M 16.5 20.25 L 16.542969 20.292969 L 16.5 20.25 M 16.542969 20.292969 L 16.582031 20.332031 L 16.542969 20.292969 M 16.582031 20.332031 L 16.625 20.375 L 16.582031 20.332031 M 16.625 20.375 L 16.707031 20.457031 Z M 16.625 20.375 "/>
<path style=" stroke:none;fill-rule:nonzero;fill:rgb(38.823529%,74.901961%,80%);fill-opacity:1;" d="M 16.667969 20.375 L 16.707031 20.417969 L 16.667969 20.375 M 16.707031 20.417969 L 16.75 20.457031 L 16.707031 20.417969 M 16.75 20.457031 L 16.792969 20.5 L 16.75 20.457031 M 16.792969 20.5 L 16.832031 20.542969 L 16.792969 20.5 M 16.832031 20.542969 L 16.875 20.582031 L 16.832031 20.542969 M 16.875 20.582031 L 16.917969 20.625 Z M 16.875 20.582031 "/>
<path style=" stroke:none;fill-rule:nonzero;fill:rgb(63.137255%,87.843137%,90.980392%);fill-opacity:1;" d="M 16.917969 20.625 L 16.957031 20.667969 L 16.917969 20.625 M 16.957031 20.667969 L 17 20.707031 L 16.957031 20.667969 M 17 20.707031 L 17.042969 20.75 L 17 20.707031 M 17.042969 20.75 L 17.082031 20.792969 L 17.042969 20.75 M 17.082031 20.792969 L 17.125 20.832031 L 17.082031 20.792969 M 17.125 20.832031 L 17.167969 20.875 L 17.125 20.832031 M 17.167969 20.875 L 17.207031 20.917969 Z M 17.167969 20.875 "/>
<path style=" stroke:none;fill-rule:nonzero;fill:rgb(38.823529%,74.901961%,80%);fill-opacity:1;" d="M 17.207031 20.875 L 17.25 20.917969 L 17.207031 20.875 M 17.25 20.917969 L 17.292969 20.957031 L 17.25 20.917969 M 17.292969 20.957031 L 17.332031 21 L 17.292969 20.957031 M 17.332031 21 L 17.375 21.042969 L 17.332031 21 M 17.375 21.042969 L 17.417969 21.082031 L 17.375 21.042969 M 17.417969 21.082031 L 17.457031 21.125 Z M 17.417969 21.082031 "/>
<path style=" stroke:none;fill-rule:nonzero;fill:rgb(63.137255%,87.843137%,90.980392%);fill-opacity:1;" d="M 17.457031 21.125 L 17.5 21.167969 L 17.457031 21.125 M 17.5 21.167969 L 17.542969 21.207031 L 17.5 21.167969 M 17.542969 21.207031 L 17.582031 21.25 L 17.542969 21.207031 M 17.582031 21.25 L 17.625 21.292969 L 17.582031 21.25 M 17.625 21.292969 L 17.707031 21.375 Z M 17.625 21.292969 "/>
<path style=" stroke:none;fill-rule:nonzero;fill:rgb(38.823529%,74.901961%,80%);fill-opacity:1;" d="M 17.667969 21.292969 L 17.707031 21.332031 L 17.667969 21.292969 M 17.75 21.375 L 17.832031 21.457031 Z M 17.75 21.375 "/>
<path style=" stroke:none;fill-rule:nonzero;fill:rgb(63.137255%,87.843137%,90.980392%);fill-opacity:1;" d="M 17.75 21.417969 L 17.792969 21.457031 Z M 17.75 21.417969 "/>
<path style=" stroke:none;fill-rule:nonzero;fill:rgb(38.823529%,74.901961%,80%);fill-opacity:1;" d="M 17.832031 21.457031 L 17.875 21.5 L 17.832031 21.457031 M 17.875 21.5 L 17.917969 21.542969 L 17.875 21.5 M 17.917969 21.542969 L 17.957031 21.582031 L 17.917969 21.542969 M 32.25 21.542969 L 32.292969 21.582031 L 32.25 21.542969 M 17.957031 21.582031 L 18 21.625 L 17.957031 21.582031 M 32.207031 21.582031 L 32.25 21.625 L 32.207031 21.582031 M 32.292969 21.582031 L 32.292969 22.375 L 32.332031 22.375 Z M 32.292969 21.582031 "/>
<path style=" stroke:none;fill-rule:nonzero;fill:rgb(63.137255%,87.843137%,90.980392%);fill-opacity:1;" d="M 18 21.625 L 18.042969 21.667969 L 18 21.625 M 32.167969 21.625 L 32.207031 21.667969 L 32.167969 21.625 M 18.042969 21.667969 L 18.082031 21.707031 L 18.042969 21.667969 M 32.125 21.667969 L 32.167969 21.707031 L 32.125 21.667969 M 18.082031 21.707031 L 18.125 21.75 L 18.082031 21.707031 M 32.082031 21.707031 L 32.125 21.75 L 32.082031 21.707031 M 18.125 21.75 L 18.167969 21.792969 L 18.125 21.75 M 32.042969 21.75 L 32.082031 21.792969 L 32.042969 21.75 M 18.167969 21.792969 L 18.207031 21.832031 L 18.167969 21.792969 M 32 21.792969 L 32.042969 21.832031 L 32 21.792969 M 18.207031 21.832031 L 18.25 21.875 L 18.207031 21.832031 M 31.957031 21.832031 L 32 21.875 L 31.957031 21.832031 M 18.25 21.875 L 18.332031 21.957031 Z M 18.25 21.875 "/>
<path style=" stroke:none;fill-rule:nonzero;fill:rgb(38.823529%,74.901961%,80%);fill-opacity:1;" d="M 18.292969 21.875 L 18.332031 21.917969 Z M 18.292969 21.875 "/>
<path style=" stroke:none;fill-rule:nonzero;fill:rgb(63.137255%,87.843137%,90.980392%);fill-opacity:1;" d="M 31.917969 21.875 L 31.957031 21.917969 Z M 31.917969 21.875 "/>
<path style=" stroke:none;fill-rule:nonzero;fill:rgb(38.823529%,74.901961%,80%);fill-opacity:1;" d="M 18.332031 21.917969 L 18.375 21.957031 L 18.332031 21.917969 M 18.375 21.957031 L 18.417969 22 L 18.375 21.957031 M 31.792969 21.957031 L 31.832031 22 L 31.792969 21.957031 M 18.417969 22 L 18.457031 22.042969 L 18.417969 22 M 31.75 22 L 31.792969 22.042969 L 31.75 22 M 18.457031 22.042969 L 18.5 22.082031 L 18.457031 22.042969 M 31.707031 22.042969 L 31.75 22.082031 L 31.707031 22.042969 M 18.5 22.082031 L 18.542969 22.125 L 18.5 22.082031 M 31.667969 22.082031 L 31.707031 22.125 Z M 31.667969 22.082031 "/>
<path style=" stroke:none;fill-rule:nonzero;fill:rgb(63.137255%,87.843137%,90.980392%);fill-opacity:1;" d="M 18.542969 22.125 L 18.582031 22.167969 Z M 18.542969 22.125 "/>
<path style=" stroke:none;fill-rule:nonzero;fill:rgb(38.823529%,74.901961%,80%);fill-opacity:1;" d="M 31.625 22.125 L 31.667969 22.167969 Z M 31.625 22.125 "/>
<path style=" stroke:none;fill-rule:nonzero;fill:rgb(63.137255%,87.843137%,90.980392%);fill-opacity:1;" d="M 18.582031 22.167969 L 18.625 22.207031 Z M 18.582031 22.167969 "/>
<path style=" stroke:none;fill-rule:nonzero;fill:rgb(38.823529%,74.901961%,80%);fill-opacity:1;" d="M 31.582031 22.167969 L 31.625 22.207031 Z M 31.582031 22.167969 "/>
<path style=" stroke:none;fill-rule:nonzero;fill:rgb(63.137255%,87.843137%,90.980392%);fill-opacity:1;" d="M 18.625 22.207031 L 18.667969 22.25 L 18.625 22.207031 M 31.542969 22.207031 L 31.582031 22.25 L 31.542969 22.207031 M 18.667969 22.25 L 18.707031 22.292969 L 18.667969 22.25 M 31.5 22.25 L 31.542969 22.292969 L 31.5 22.25 M 18.707031 22.292969 L 18.75 22.332031 L 18.707031 22.292969 M 31.457031 22.292969 L 31.5 22.332031 L 31.457031 22.292969 M 18.75 22.332031 L 18.792969 22.375 L 18.75 22.332031 M 31.417969 22.332031 L 31.457031 22.375 Z M 31.417969 22.332031 "/>
<path style=" stroke:none;fill-rule:nonzero;fill:rgb(38.823529%,74.901961%,80%);fill-opacity:1;" d="M 18.832031 22.375 L 18.875 22.417969 Z M 18.832031 22.375 "/>
<path style=" stroke:none;fill-rule:nonzero;fill:rgb(63.137255%,87.843137%,90.980392%);fill-opacity:1;" d="M 31.375 22.375 L 31.417969 22.417969 Z M 31.375 22.375 "/>
<path style=" stroke:none;fill-rule:nonzero;fill:rgb(38.823529%,74.901961%,80%);fill-opacity:1;" d="M 18.875 22.417969 L 18.917969 22.457031 Z M 18.875 22.417969 "/>
<path style=" stroke:none;fill-rule:nonzero;fill:rgb(63.137255%,87.843137%,90.980392%);fill-opacity:1;" d="M 31.332031 22.417969 L 31.375 22.457031 Z M 31.332031 22.417969 "/>
<path style=" stroke:none;fill-rule:nonzero;fill:rgb(38.823529%,74.901961%,80%);fill-opacity:1;" d="M 18.917969 22.457031 L 18.957031 22.5 Z M 18.917969 22.457031 "/>
<path style=" stroke:none;fill-rule:nonzero;fill:rgb(63.137255%,87.843137%,90.980392%);fill-opacity:1;" d="M 31.292969 22.457031 L 31.332031 22.5 Z M 31.292969 22.457031 "/>
<path style=" stroke:none;fill-rule:nonzero;fill:rgb(38.823529%,74.901961%,80%);fill-opacity:1;" d="M 18.957031 22.5 L 19 22.542969 L 18.957031 22.5 M 31.207031 22.5 L 31.25 22.542969 L 31.207031 22.5 M 19 22.542969 L 19.042969 22.582031 L 19 22.542969 M 31.167969 22.542969 L 31.207031 22.582031 L 31.167969 22.542969 M 19.042969 22.582031 L 19.082031 22.625 L 19.042969 22.582031 M 31.125 22.582031 L 31.167969 22.625 Z M 31.125 22.582031 "/>
<path style=" stroke:none;fill-rule:nonzero;fill:rgb(63.137255%,87.843137%,90.980392%);fill-opacity:1;" d="M 19.082031 22.625 L 19.125 22.667969 Z M 19.082031 22.625 "/>
<path style=" stroke:none;fill-rule:nonzero;fill:rgb(38.823529%,74.901961%,80%);fill-opacity:1;" d="M 31.082031 22.625 L 31.125 22.667969 Z M 31.082031 22.625 "/>
<path style=" stroke:none;fill-rule:nonzero;fill:rgb(63.137255%,87.843137%,90.980392%);fill-opacity:1;" d="M 19.125 22.667969 L 19.167969 22.707031 Z M 19.125 22.667969 "/>
<path style=" stroke:none;fill-rule:nonzero;fill:rgb(38.823529%,74.901961%,80%);fill-opacity:1;" d="M 31.042969 22.667969 L 31.082031 22.707031 Z M 31.042969 22.667969 "/>
<path style=" stroke:none;fill-rule:nonzero;fill:rgb(63.137255%,87.843137%,90.980392%);fill-opacity:1;" d="M 19.167969 22.707031 L 19.207031 22.75 L 19.167969 22.707031 M 31 22.707031 L 31.042969 22.75 L 31 22.707031 M 19.207031 22.75 L 19.25 22.792969 L 19.207031 22.75 M 30.957031 22.75 L 31 22.792969 L 30.957031 22.75 M 19.25 22.792969 L 19.332031 22.875 Z M 19.25 22.792969 "/>
<path style=" stroke:none;fill-rule:nonzero;fill:rgb(38.823529%,74.901961%,80%);fill-opacity:1;" d="M 19.292969 22.792969 L 19.332031 22.832031 Z M 19.292969 22.792969 "/>
<path style=" stroke:none;fill-rule:nonzero;fill:rgb(63.137255%,87.843137%,90.980392%);fill-opacity:1;" d="M 30.917969 22.792969 L 30.957031 22.832031 Z M 30.917969 22.792969 "/>
<path style=" stroke:none;fill-rule:nonzero;fill:rgb(67.843137%,86.666667%,14.117647%);fill-opacity:1;" d="M 10.792969 22.832031 L 10.792969 35.5 L 13.417969 33.214844 L 17.875 29.292969 L 17.875 29.25 L 12.957031 24.785156 Z M 10.792969 22.832031 "/>
<path style=" stroke:none;fill-rule:nonzero;fill:rgb(63.137255%,87.843137%,90.980392%);fill-opacity:1;" d="M 30.875 22.832031 L 30.917969 22.875 Z M 30.875 22.832031 "/>
<path style=" stroke:none;fill-rule:nonzero;fill:rgb(38.823529%,74.901961%,80%);fill-opacity:1;" d="M 19.375 22.875 L 19.417969 22.917969 Z M 19.375 22.875 "/>
<path style=" stroke:none;fill-rule:nonzero;fill:rgb(63.137255%,87.843137%,90.980392%);fill-opacity:1;" d="M 30.832031 22.875 L 30.875 22.917969 Z M 30.832031 22.875 "/>
<path style=" stroke:none;fill-rule:nonzero;fill:rgb(38.823529%,74.901961%,80%);fill-opacity:1;" d="M 19.417969 22.917969 L 19.457031 22.957031 Z M 19.417969 22.917969 "/>
<path style=" stroke:none;fill-rule:nonzero;fill:rgb(63.137255%,87.843137%,90.980392%);fill-opacity:1;" d="M 30.792969 22.917969 L 30.832031 22.957031 Z M 30.792969 22.917969 "/>
<path style=" stroke:none;fill-rule:nonzero;fill:rgb(38.823529%,74.901961%,80%);fill-opacity:1;" d="M 19.457031 22.957031 L 19.5 23 L 19.457031 22.957031 M 19.5 23 L 19.542969 23.042969 L 19.5 23 M 30.667969 23 L 30.707031 23.042969 L 30.667969 23 M 19.542969 23.042969 L 19.582031 23.082031 L 19.542969 23.042969 M 30.625 23.042969 L 30.667969 23.082031 L 30.625 23.042969 M 19.582031 23.082031 L 19.625 23.125 L 19.582031 23.082031 M 30.582031 23.082031 L 30.625 23.125 Z M 30.582031 23.082031 "/>
<path style=" stroke:none;fill-rule:nonzero;fill:rgb(63.137255%,87.843137%,90.980392%);fill-opacity:1;" d="M 19.625 23.125 L 19.667969 23.167969 Z M 19.625 23.125 "/>
<path style=" stroke:none;fill-rule:nonzero;fill:rgb(38.823529%,74.901961%,80%);fill-opacity:1;" d="M 30.542969 23.125 L 30.582031 23.167969 Z M 30.542969 23.125 "/>
<path style=" stroke:none;fill-rule:nonzero;fill:rgb(63.137255%,87.843137%,90.980392%);fill-opacity:1;" d="M 19.667969 23.167969 L 19.707031 23.207031 Z M 19.667969 23.167969 "/>
<path style=" stroke:none;fill-rule:nonzero;fill:rgb(38.823529%,74.901961%,80%);fill-opacity:1;" d="M 30.5 23.167969 L 30.542969 23.207031 Z M 30.5 23.167969 "/>
<path style=" stroke:none;fill-rule:nonzero;fill:rgb(63.137255%,87.843137%,90.980392%);fill-opacity:1;" d="M 19.707031 23.207031 L 19.75 23.25 Z M 19.707031 23.207031 "/>
<path style=" stroke:none;fill-rule:nonzero;fill:rgb(38.823529%,74.901961%,80%);fill-opacity:1;" d="M 30.457031 23.207031 L 30.5 23.25 Z M 30.457031 23.207031 "/>
<path style=" stroke:none;fill-rule:nonzero;fill:rgb(63.137255%,87.843137%,90.980392%);fill-opacity:1;" d="M 19.75 23.25 L 19.792969 23.292969 L 19.75 23.25 M 30.417969 23.25 L 30.457031 23.292969 L 30.417969 23.25 M 19.792969 23.292969 L 19.875 23.375 Z M 19.792969 23.292969 "/>
<path style=" stroke:none;fill-rule:nonzero;fill:rgb(38.823529%,74.901961%,80%);fill-opacity:1;" d="M 19.832031 23.292969 L 19.875 23.332031 Z M 19.832031 23.292969 "/>
<path style=" stroke:none;fill-rule:nonzero;fill:rgb(63.137255%,87.843137%,90.980392%);fill-opacity:1;" d="M 30.375 23.292969 L 30.417969 23.332031 L 30.375 23.292969 M 30.332031 23.332031 L 30.375 23.375 L 30.332031 23.332031 M 19.875 23.375 L 19.917969 23.417969 Z M 19.875 23.375 "/>
<path style=" stroke:none;fill-rule:nonzero;fill:rgb(38.823529%,74.901961%,80%);fill-opacity:1;" d="M 19.917969 23.375 L 19.957031 23.417969 Z M 19.917969 23.375 "/>
<path style=" stroke:none;fill-rule:nonzero;fill:rgb(63.137255%,87.843137%,90.980392%);fill-opacity:1;" d="M 30.292969 23.375 L 30.332031 23.417969 Z M 30.292969 23.375 "/>
<path style=" stroke:none;fill-rule:nonzero;fill:rgb(38.823529%,74.901961%,80%);fill-opacity:1;" d="M 19.957031 23.417969 L 20 23.457031 Z M 19.957031 23.417969 "/>
<path style=" stroke:none;fill-rule:nonzero;fill:rgb(63.137255%,87.843137%,90.980392%);fill-opacity:1;" d="M 30.25 23.417969 L 30.292969 23.457031 Z M 30.25 23.417969 "/>
<path style=" stroke:none;fill-rule:nonzero;fill:rgb(38.823529%,74.901961%,80%);fill-opacity:1;" d="M 20 23.457031 L 20.042969 23.5 Z M 20 23.457031 "/>
<path style=" stroke:none;fill-rule:nonzero;fill:rgb(63.137255%,87.843137%,90.980392%);fill-opacity:1;" d="M 30.207031 23.457031 L 30.25 23.5 Z M 30.207031 23.457031 "/>
<path style=" stroke:none;fill-rule:nonzero;fill:rgb(38.823529%,74.901961%,80%);fill-opacity:1;" d="M 20.042969 23.5 L 20.082031 23.542969 L 20.042969 23.5 M 20.082031 23.542969 L 20.125 23.582031 L 20.082031 23.542969 M 20.125 23.582031 L 20.167969 23.625 L 20.125 23.582031 M 30.042969 23.582031 L 30.082031 23.625 Z M 30.042969 23.582031 "/>
<path style=" stroke:none;fill-rule:nonzero;fill:rgb(63.137255%,87.843137%,90.980392%);fill-opacity:1;" d="M 20.167969 23.625 L 20.207031 23.667969 Z M 20.167969 23.625 "/>
<path style=" stroke:none;fill-rule:nonzero;fill:rgb(38.823529%,74.901961%,80%);fill-opacity:1;" d="M 30 23.625 L 30.042969 23.667969 Z M 30 23.625 "/>
<path style=" stroke:none;fill-rule:nonzero;fill:rgb(63.137255%,87.843137%,90.980392%);fill-opacity:1;" d="M 20.207031 23.667969 L 20.25 23.707031 Z M 20.207031 23.667969 "/>
<path style=" stroke:none;fill-rule:nonzero;fill:rgb(38.823529%,74.901961%,80%);fill-opacity:1;" d="M 29.957031 23.667969 L 30 23.707031 Z M 29.957031 23.667969 "/>
<path style=" stroke:none;fill-rule:nonzero;fill:rgb(63.137255%,87.843137%,90.980392%);fill-opacity:1;" d="M 20.25 23.707031 L 20.292969 23.75 Z M 20.25 23.707031 "/>
<path style=" stroke:none;fill-rule:nonzero;fill:rgb(38.823529%,74.901961%,80%);fill-opacity:1;" d="M 29.917969 23.707031 L 29.957031 23.75 Z M 29.917969 23.707031 "/>
<path style=" stroke:none;fill-rule:nonzero;fill:rgb(63.137255%,87.843137%,90.980392%);fill-opacity:1;" d="M 20.292969 23.75 L 20.332031 23.792969 L 20.292969 23.75 M 29.875 23.75 L 29.917969 23.792969 L 29.875 23.75 M 20.332031 23.792969 L 20.375 23.832031 L 20.332031 23.792969 M 29.832031 23.792969 L 29.875 23.832031 L 29.832031 23.792969 M 20.375 23.832031 L 20.417969 23.875 L 20.375 23.832031 M 29.792969 23.832031 L 29.832031 23.875 Z M 29.792969 23.832031 "/>
<path style=" stroke:none;fill-rule:nonzero;fill:rgb(38.823529%,74.901961%,80%);fill-opacity:1;" d="M 20.457031 23.875 L 20.5 23.917969 Z M 20.457031 23.875 "/>
<path style=" stroke:none;fill-rule:nonzero;fill:rgb(63.137255%,87.843137%,90.980392%);fill-opacity:1;" d="M 29.75 23.875 L 29.792969 23.917969 Z M 29.75 23.875 "/>
<path style=" stroke:none;fill-rule:nonzero;fill:rgb(38.823529%,74.901961%,80%);fill-opacity:1;" d="M 20.5 23.917969 L 20.542969 23.957031 Z M 20.5 23.917969 "/>
<path style=" stroke:none;fill-rule:nonzero;fill:rgb(63.137255%,87.843137%,90.980392%);fill-opacity:1;" d="M 29.707031 23.917969 L 29.75 23.957031 Z M 29.707031 23.917969 "/>
<path style=" stroke:none;fill-rule:nonzero;fill:rgb(38.823529%,74.901961%,80%);fill-opacity:1;" d="M 20.542969 23.957031 L 20.582031 24 Z M 20.542969 23.957031 "/>
<path style=" stroke:none;fill-rule:nonzero;fill:rgb(63.137255%,87.843137%,90.980392%);fill-opacity:1;" d="M 29.667969 23.957031 L 29.707031 24 Z M 29.667969 23.957031 "/>
<path style=" stroke:none;fill-rule:nonzero;fill:rgb(38.823529%,74.901961%,80%);fill-opacity:1;" d="M 20.582031 24 L 20.625 24.042969 L 20.582031 24 M 20.625 24.042969 L 20.667969 24.082031 L 20.625 24.042969 M 29.542969 24.042969 L 29.582031 24.082031 Z M 29.542969 24.042969 "/>
<path style=" stroke:none;fill-rule:nonzero;fill:rgb(63.137255%,87.843137%,90.980392%);fill-opacity:1;" d="M 29.582031 24.042969 L 29.625 24.082031 Z M 29.582031 24.042969 "/>
<path style=" stroke:none;fill-rule:nonzero;fill:rgb(38.823529%,74.901961%,80%);fill-opacity:1;" d="M 20.667969 24.082031 L 20.707031 24.125 Z M 20.667969 24.082031 "/>
<path style=" stroke:none;fill-rule:nonzero;fill:rgb(63.137255%,87.843137%,90.980392%);fill-opacity:1;" d="M 20.707031 24.125 L 20.75 24.167969 Z M 20.707031 24.125 "/>
<path style=" stroke:none;fill-rule:nonzero;fill:rgb(38.823529%,74.901961%,80%);fill-opacity:1;" d="M 29.457031 24.125 L 29.5 24.167969 Z M 29.457031 24.125 "/>
<path style=" stroke:none;fill-rule:nonzero;fill:rgb(63.137255%,87.843137%,90.980392%);fill-opacity:1;" d="M 20.75 24.167969 L 20.792969 24.207031 Z M 20.75 24.167969 "/>
<path style=" stroke:none;fill-rule:nonzero;fill:rgb(38.823529%,74.901961%,80%);fill-opacity:1;" d="M 29.417969 24.167969 L 29.457031 24.207031 Z M 29.417969 24.167969 "/>
<path style=" stroke:none;fill-rule:nonzero;fill:rgb(63.137255%,87.843137%,90.980392%);fill-opacity:1;" d="M 20.792969 24.207031 L 20.832031 24.25 Z M 20.792969 24.207031 "/>
<path style=" stroke:none;fill-rule:nonzero;fill:rgb(38.823529%,74.901961%,80%);fill-opacity:1;" d="M 29.375 24.207031 L 29.417969 24.25 Z M 29.375 24.207031 "/>
<path style=" stroke:none;fill-rule:nonzero;fill:rgb(63.137255%,87.843137%,90.980392%);fill-opacity:1;" d="M 20.832031 24.25 L 20.875 24.292969 Z M 20.832031 24.25 "/>
<path style=" stroke:none;fill-rule:nonzero;fill:rgb(38.823529%,74.901961%,80%);fill-opacity:1;" d="M 29.332031 24.25 L 29.375 24.292969 Z M 29.332031 24.25 "/>
<path style=" stroke:none;fill-rule:nonzero;fill:rgb(63.137255%,87.843137%,90.980392%);fill-opacity:1;" d="M 20.875 24.292969 L 20.957031 24.375 Z M 20.875 24.292969 "/>
<path style=" stroke:none;fill-rule:nonzero;fill:rgb(38.823529%,74.901961%,80%);fill-opacity:1;" d="M 20.917969 24.292969 L 20.957031 24.332031 L 20.917969 24.292969 M 29.292969 24.292969 L 29.332031 24.332031 L 29.292969 24.292969 M 20.957031 24.332031 L 21 24.375 Z M 20.957031 24.332031 "/>
<path style=" stroke:none;fill-rule:nonzero;fill:rgb(63.137255%,87.843137%,90.980392%);fill-opacity:1;" d="M 29.25 24.332031 L 29.292969 24.375 Z M 29.25 24.332031 "/>
<path style=" stroke:none;fill-rule:nonzero;fill:rgb(38.823529%,74.901961%,80%);fill-opacity:1;" d="M 21 24.375 L 21.042969 24.417969 Z M 21 24.375 "/>
<path style=" stroke:none;fill-rule:nonzero;fill:rgb(63.137255%,87.843137%,90.980392%);fill-opacity:1;" d="M 29.207031 24.375 L 29.25 24.417969 Z M 29.207031 24.375 "/>
<path style=" stroke:none;fill-rule:nonzero;fill:rgb(38.823529%,74.901961%,80%);fill-opacity:1;" d="M 21.042969 24.417969 L 21.082031 24.457031 Z M 21.042969 24.417969 "/>
<path style=" stroke:none;fill-rule:nonzero;fill:rgb(63.137255%,87.843137%,90.980392%);fill-opacity:1;" d="M 29.167969 24.417969 L 29.207031 24.457031 Z M 29.167969 24.417969 "/>
<path style=" stroke:none;fill-rule:nonzero;fill:rgb(38.823529%,74.901961%,80%);fill-opacity:1;" d="M 21.082031 24.457031 L 21.125 24.5 Z M 21.082031 24.457031 "/>
<path style=" stroke:none;fill-rule:nonzero;fill:rgb(63.137255%,87.843137%,90.980392%);fill-opacity:1;" d="M 29.125 24.457031 L 29.167969 24.5 Z M 29.125 24.457031 "/>
<path style=" stroke:none;fill-rule:nonzero;fill:rgb(38.823529%,74.901961%,80%);fill-opacity:1;" d="M 21.125 24.5 L 21.167969 24.542969 Z M 21.125 24.5 "/>
<path style=" stroke:none;fill-rule:nonzero;fill:rgb(63.137255%,87.843137%,90.980392%);fill-opacity:1;" d="M 29.082031 24.5 L 29.125 24.542969 Z M 29.082031 24.5 "/>
<path style=" stroke:none;fill-rule:nonzero;fill:rgb(38.823529%,74.901961%,80%);fill-opacity:1;" d="M 21.167969 24.542969 L 21.207031 24.582031 Z M 21.167969 24.542969 "/>
<path style=" stroke:none;fill-rule:nonzero;fill:rgb(63.137255%,87.843137%,90.980392%);fill-opacity:1;" d="M 29.042969 24.542969 L 29.082031 24.582031 Z M 29.042969 24.542969 "/>
<path style=" stroke:none;fill-rule:nonzero;fill:rgb(38.823529%,74.901961%,80%);fill-opacity:1;" d="M 21.207031 24.582031 L 21.25 24.625 Z M 21.207031 24.582031 "/>
<path style=" stroke:none;fill-rule:nonzero;fill:rgb(63.137255%,87.843137%,90.980392%);fill-opacity:1;" d="M 21.25 24.625 L 21.292969 24.667969 Z M 21.25 24.625 "/>
<path style=" stroke:none;fill-rule:nonzero;fill:rgb(38.823529%,74.901961%,80%);fill-opacity:1;" d="M 28.917969 24.625 L 28.957031 24.667969 Z M 28.917969 24.625 "/>
<path style=" stroke:none;fill-rule:nonzero;fill:rgb(63.137255%,87.843137%,90.980392%);fill-opacity:1;" d="M 21.292969 24.667969 L 21.332031 24.707031 Z M 21.292969 24.667969 "/>
<path style=" stroke:none;fill-rule:nonzero;fill:rgb(38.823529%,74.901961%,80%);fill-opacity:1;" d="M 28.875 24.667969 L 28.917969 24.707031 Z M 28.875 24.667969 "/>
<path style=" stroke:none;fill-rule:nonzero;fill:rgb(63.137255%,87.843137%,90.980392%);fill-opacity:1;" d="M 21.332031 24.707031 L 21.375 24.75 Z M 21.332031 24.707031 "/>
<path style=" stroke:none;fill-rule:nonzero;fill:rgb(38.823529%,74.901961%,80%);fill-opacity:1;" d="M 28.832031 24.707031 L 28.875 24.75 Z M 28.832031 24.707031 "/>
<path style=" stroke:none;fill-rule:nonzero;fill:rgb(63.137255%,87.843137%,90.980392%);fill-opacity:1;" d="M 21.375 24.75 L 21.417969 24.792969 Z M 21.375 24.75 "/>
<path style=" stroke:none;fill-rule:nonzero;fill:rgb(38.823529%,74.901961%,80%);fill-opacity:1;" d="M 28.792969 24.75 L 28.832031 24.792969 Z M 28.792969 24.75 "/>
<path style=" stroke:none;fill-rule:nonzero;fill:rgb(63.137255%,87.843137%,90.980392%);fill-opacity:1;" d="M 21.417969 24.792969 L 21.5 24.875 Z M 21.417969 24.792969 "/>
<path style=" stroke:none;fill-rule:nonzero;fill:rgb(38.823529%,74.901961%,80%);fill-opacity:1;" d="M 21.457031 24.792969 L 21.5 24.832031 L 21.457031 24.792969 M 28.75 24.792969 L 28.792969 24.832031 L 28.75 24.792969 M 28.707031 24.832031 L 28.75 24.875 L 28.707031 24.832031 M 21.542969 24.875 L 21.582031 24.917969 Z M 21.542969 24.875 "/>
<path style=" stroke:none;fill-rule:nonzero;fill:rgb(63.137255%,87.843137%,90.980392%);fill-opacity:1;" d="M 28.667969 24.875 L 28.707031 24.917969 Z M 28.667969 24.875 "/>
<path style=" stroke:none;fill-rule:nonzero;fill:rgb(38.823529%,74.901961%,80%);fill-opacity:1;" d="M 21.582031 24.917969 L 21.625 24.957031 Z M 21.582031 24.917969 "/>
<path style=" stroke:none;fill-rule:nonzero;fill:rgb(63.137255%,87.843137%,90.980392%);fill-opacity:1;" d="M 28.625 24.917969 L 28.667969 24.957031 Z M 28.625 24.917969 "/>
<path style=" stroke:none;fill-rule:nonzero;fill:rgb(38.823529%,74.901961%,80%);fill-opacity:1;" d="M 21.625 24.957031 L 21.667969 25 Z M 21.625 24.957031 "/>
<path style=" stroke:none;fill-rule:nonzero;fill:rgb(63.137255%,87.843137%,90.980392%);fill-opacity:1;" d="M 28.582031 24.957031 L 28.625 25 Z M 28.582031 24.957031 "/>
<path style=" stroke:none;fill-rule:nonzero;fill:rgb(38.823529%,74.901961%,80%);fill-opacity:1;" d="M 21.667969 25 L 21.707031 25.042969 Z M 21.667969 25 "/>
<path style=" stroke:none;fill-rule:nonzero;fill:rgb(63.137255%,87.843137%,90.980392%);fill-opacity:1;" d="M 28.542969 25 L 28.582031 25.042969 Z M 28.542969 25 "/>
<path style=" stroke:none;fill-rule:nonzero;fill:rgb(38.823529%,74.901961%,80%);fill-opacity:1;" d="M 21.707031 25.042969 L 21.75 25.082031 Z M 21.707031 25.042969 "/>
<path style=" stroke:none;fill-rule:nonzero;fill:rgb(63.137255%,87.843137%,90.980392%);fill-opacity:1;" d="M 28.5 25.042969 L 28.542969 25.082031 Z M 28.5 25.042969 "/>
<path style=" stroke:none;fill-rule:nonzero;fill:rgb(38.823529%,74.901961%,80%);fill-opacity:1;" d="M 21.75 25.082031 L 21.792969 25.125 Z M 21.75 25.082031 "/>
<path style=" stroke:none;fill-rule:nonzero;fill:rgb(63.137255%,87.843137%,90.980392%);fill-opacity:1;" d="M 28.457031 25.082031 L 28.5 25.125 L 28.457031 25.082031 M 21.792969 25.125 L 21.832031 25.167969 Z M 21.792969 25.125 "/>
<path style=" stroke:none;fill-rule:nonzero;fill:rgb(38.823529%,74.901961%,80%);fill-opacity:1;" d="M 28.375 25.125 L 28.417969 25.167969 Z M 28.375 25.125 "/>
<path style=" stroke:none;fill-rule:nonzero;fill:rgb(63.137255%,87.843137%,90.980392%);fill-opacity:1;" d="M 21.832031 25.167969 L 21.875 25.207031 Z M 21.832031 25.167969 "/>
<path style=" stroke:none;fill-rule:nonzero;fill:rgb(38.823529%,74.901961%,80%);fill-opacity:1;" d="M 28.332031 25.167969 L 28.375 25.207031 Z M 28.332031 25.167969 "/>
<path style=" stroke:none;fill-rule:nonzero;fill:rgb(63.137255%,87.843137%,90.980392%);fill-opacity:1;" d="M 21.875 25.207031 L 21.917969 25.25 Z M 21.875 25.207031 "/>
<path style=" stroke:none;fill-rule:nonzero;fill:rgb(38.823529%,74.901961%,80%);fill-opacity:1;" d="M 28.292969 25.207031 L 28.332031 25.25 Z M 28.292969 25.207031 "/>
<path style=" stroke:none;fill-rule:nonzero;fill:rgb(63.137255%,87.843137%,90.980392%);fill-opacity:1;" d="M 21.917969 25.25 L 21.957031 25.292969 Z M 21.917969 25.25 "/>
<path style=" stroke:none;fill-rule:nonzero;fill:rgb(38.823529%,74.901961%,80%);fill-opacity:1;" d="M 28.25 25.25 L 28.292969 25.292969 Z M 28.25 25.25 "/>
<path style=" stroke:none;fill-rule:nonzero;fill:rgb(63.137255%,87.843137%,90.980392%);fill-opacity:1;" d="M 21.957031 25.292969 L 22 25.332031 Z M 21.957031 25.292969 "/>
<path style=" stroke:none;fill-rule:nonzero;fill:rgb(38.823529%,74.901961%,80%);fill-opacity:1;" d="M 28.207031 25.292969 L 28.25 25.332031 Z M 28.207031 25.292969 "/>
<path style=" stroke:none;fill-rule:nonzero;fill:rgb(63.137255%,87.843137%,90.980392%);fill-opacity:1;" d="M 22 25.332031 L 22.042969 25.375 Z M 22 25.332031 "/>
<path style=" stroke:none;fill-rule:nonzero;fill:rgb(38.823529%,74.901961%,80%);fill-opacity:1;" d="M 28.167969 25.332031 L 28.207031 25.375 L 28.167969 25.332031 M 22.082031 25.375 L 22.125 25.417969 Z M 22.082031 25.375 "/>
<path style=" stroke:none;fill-rule:nonzero;fill:rgb(63.137255%,87.843137%,90.980392%);fill-opacity:1;" d="M 28.125 25.375 L 28.167969 25.417969 L 28.125 25.375 M 32.25 25.375 L 32.25 30.082031 L 32.292969 30.082031 L 32.292969 26.792969 Z M 32.25 25.375 "/>
<path style=" stroke:none;fill-rule:nonzero;fill:rgb(38.823529%,74.901961%,80%);fill-opacity:1;" d="M 22.125 25.417969 L 22.167969 25.457031 Z M 22.125 25.417969 "/>
<path style=" stroke:none;fill-rule:nonzero;fill:rgb(63.137255%,87.843137%,90.980392%);fill-opacity:1;" d="M 28.082031 25.417969 L 28.125 25.457031 Z M 28.082031 25.417969 "/>
<path style=" stroke:none;fill-rule:nonzero;fill:rgb(38.823529%,74.901961%,80%);fill-opacity:1;" d="M 22.167969 25.457031 L 22.207031 25.5 Z M 22.167969 25.457031 "/>
<path style=" stroke:none;fill-rule:nonzero;fill:rgb(63.137255%,87.843137%,90.980392%);fill-opacity:1;" d="M 28.042969 25.457031 L 28.082031 25.5 Z M 28.042969 25.457031 "/>
<path style=" stroke:none;fill-rule:nonzero;fill:rgb(38.823529%,74.901961%,80%);fill-opacity:1;" d="M 22.207031 25.5 L 22.25 25.542969 Z M 22.207031 25.5 "/>
<path style=" stroke:none;fill-rule:nonzero;fill:rgb(63.137255%,87.843137%,90.980392%);fill-opacity:1;" d="M 28 25.5 L 28.042969 25.542969 Z M 28 25.5 "/>
<path style=" stroke:none;fill-rule:nonzero;fill:rgb(38.823529%,74.901961%,80%);fill-opacity:1;" d="M 22.25 25.542969 L 22.292969 25.582031 Z M 22.25 25.542969 "/>
<path style=" stroke:none;fill-rule:nonzero;fill:rgb(63.137255%,87.843137%,90.980392%);fill-opacity:1;" d="M 27.957031 25.542969 L 28 25.582031 Z M 27.957031 25.542969 "/>
<path style=" stroke:none;fill-rule:nonzero;fill:rgb(38.823529%,74.901961%,80%);fill-opacity:1;" d="M 22.292969 25.582031 L 22.332031 25.625 Z M 22.292969 25.582031 "/>
<path style=" stroke:none;fill-rule:nonzero;fill:rgb(63.137255%,87.843137%,90.980392%);fill-opacity:1;" d="M 27.917969 25.582031 L 27.957031 25.625 L 27.917969 25.582031 M 22.332031 25.625 L 22.375 25.667969 L 22.332031 25.625 M 22.375 25.667969 L 22.417969 25.707031 Z M 22.375 25.667969 "/>
<path style=" stroke:none;fill-rule:nonzero;fill:rgb(38.823529%,74.901961%,80%);fill-opacity:1;" d="M 27.792969 25.667969 L 27.832031 25.707031 Z M 27.792969 25.667969 "/>
<path style=" stroke:none;fill-rule:nonzero;fill:rgb(63.137255%,87.843137%,90.980392%);fill-opacity:1;" d="M 27.832031 25.667969 L 27.875 25.707031 L 27.832031 25.667969 M 22.417969 25.707031 L 22.457031 25.75 Z M 22.417969 25.707031 "/>
<path style=" stroke:none;fill-rule:nonzero;fill:rgb(38.823529%,74.901961%,80%);fill-opacity:1;" d="M 27.75 25.707031 L 27.792969 25.75 Z M 27.75 25.707031 "/>
<path style=" stroke:none;fill-rule:nonzero;fill:rgb(63.137255%,87.843137%,90.980392%);fill-opacity:1;" d="M 22.457031 25.75 L 22.5 25.792969 Z M 22.457031 25.75 "/>
<path style=" stroke:none;fill-rule:nonzero;fill:rgb(38.823529%,74.901961%,80%);fill-opacity:1;" d="M 27.707031 25.75 L 27.75 25.792969 Z M 27.707031 25.75 "/>
<path style=" stroke:none;fill-rule:nonzero;fill:rgb(63.137255%,87.843137%,90.980392%);fill-opacity:1;" d="M 22.5 25.792969 L 22.582031 25.875 Z M 22.5 25.792969 "/>
<path style=" stroke:none;fill-rule:nonzero;fill:rgb(38.823529%,74.901961%,80%);fill-opacity:1;" d="M 22.542969 25.792969 L 22.582031 25.832031 L 22.542969 25.792969 M 27.667969 25.792969 L 27.707031 25.832031 L 27.667969 25.792969 M 22.582031 25.832031 L 22.625 25.875 L 22.582031 25.832031 M 27.625 25.832031 L 27.667969 25.875 L 27.625 25.832031 M 22.625 25.875 L 22.667969 25.917969 L 22.625 25.875 M 27.582031 25.875 L 27.625 25.917969 L 27.582031 25.875 M 22.667969 25.917969 L 22.707031 25.957031 Z M 22.667969 25.917969 "/>
<path style=" stroke:none;fill-rule:nonzero;fill:rgb(63.137255%,87.843137%,90.980392%);fill-opacity:1;" d="M 27.542969 25.917969 L 27.582031 25.957031 Z M 27.542969 25.917969 "/>
<path style=" stroke:none;fill-rule:nonzero;fill:rgb(38.823529%,74.901961%,80%);fill-opacity:1;" d="M 22.707031 25.957031 L 22.75 26 Z M 22.707031 25.957031 "/>
<path style=" stroke:none;fill-rule:nonzero;fill:rgb(63.137255%,87.843137%,90.980392%);fill-opacity:1;" d="M 27.5 25.957031 L 27.542969 26 Z M 27.5 25.957031 "/>
<path style=" stroke:none;fill-rule:nonzero;fill:rgb(38.823529%,74.901961%,80%);fill-opacity:1;" d="M 22.75 26 L 22.792969 26.042969 Z M 22.75 26 "/>
<path style=" stroke:none;fill-rule:nonzero;fill:rgb(63.137255%,87.843137%,90.980392%);fill-opacity:1;" d="M 27.457031 26 L 27.5 26.042969 Z M 27.457031 26 "/>
<path style=" stroke:none;fill-rule:nonzero;fill:rgb(38.823529%,74.901961%,80%);fill-opacity:1;" d="M 22.792969 26.042969 L 22.832031 26.082031 Z M 22.792969 26.042969 "/>
<path style=" stroke:none;fill-rule:nonzero;fill:rgb(63.137255%,87.843137%,90.980392%);fill-opacity:1;" d="M 27.417969 26.042969 L 27.457031 26.082031 Z M 27.417969 26.042969 "/>
<path style=" stroke:none;fill-rule:nonzero;fill:rgb(38.823529%,74.901961%,80%);fill-opacity:1;" d="M 22.832031 26.082031 L 22.875 26.125 Z M 22.832031 26.082031 "/>
<path style=" stroke:none;fill-rule:nonzero;fill:rgb(63.137255%,87.843137%,90.980392%);fill-opacity:1;" d="M 27.375 26.082031 L 27.417969 26.125 L 27.375 26.082031 M 22.875 26.125 L 22.917969 26.167969 L 22.875 26.125 M 27.332031 26.125 L 27.375 26.167969 L 27.332031 26.125 M 22.917969 26.167969 L 22.957031 26.207031 L 22.917969 26.167969 M 27.292969 26.167969 L 27.332031 26.207031 L 27.292969 26.167969 M 22.957031 26.207031 L 23 26.25 L 22.957031 26.207031 M 23 26.25 L 23.042969 26.292969 Z M 23 26.25 "/>
<path style=" stroke:none;fill-rule:nonzero;fill:rgb(38.823529%,74.901961%,80%);fill-opacity:1;" d="M 27.167969 26.25 L 27.207031 26.292969 Z M 27.167969 26.25 "/>
<path style=" stroke:none;fill-rule:nonzero;fill:rgb(63.137255%,87.843137%,90.980392%);fill-opacity:1;" d="M 23.042969 26.292969 L 23.125 26.375 Z M 23.042969 26.292969 "/>
<path style=" stroke:none;fill-rule:nonzero;fill:rgb(38.823529%,74.901961%,80%);fill-opacity:1;" d="M 23.082031 26.292969 L 23.125 26.332031 L 23.082031 26.292969 M 27.125 26.292969 L 27.167969 26.332031 L 27.125 26.292969 M 27.082031 26.332031 L 27.125 26.375 L 27.082031 26.332031 M 23.167969 26.375 L 23.207031 26.417969 L 23.167969 26.375 M 27.042969 26.375 L 27.082031 26.417969 L 27.042969 26.375 M 23.207031 26.417969 L 23.25 26.457031 L 23.207031 26.417969 M 27 26.417969 L 27.042969 26.457031 L 27 26.417969 M 23.25 26.457031 L 23.292969 26.5 L 23.25 26.457031 M 26.957031 26.457031 L 27 26.5 L 26.957031 26.457031 M 23.292969 26.5 L 23.332031 26.542969 Z M 23.292969 26.5 "/>
<path style=" stroke:none;fill-rule:nonzero;fill:rgb(63.137255%,87.843137%,90.980392%);fill-opacity:1;" d="M 26.917969 26.5 L 26.957031 26.542969 Z M 26.917969 26.5 "/>
<path style=" stroke:none;fill-rule:nonzero;fill:rgb(38.823529%,74.901961%,80%);fill-opacity:1;" d="M 23.332031 26.542969 L 23.375 26.582031 Z M 23.332031 26.542969 "/>
<path style=" stroke:none;fill-rule:nonzero;fill:rgb(63.137255%,87.843137%,90.980392%);fill-opacity:1;" d="M 26.875 26.542969 L 26.917969 26.582031 Z M 26.875 26.542969 "/>
<path style=" stroke:none;fill-rule:nonzero;fill:rgb(38.823529%,74.901961%,80%);fill-opacity:1;" d="M 23.375 26.582031 L 23.417969 26.625 Z M 23.375 26.582031 "/>
<path style=" stroke:none;fill-rule:nonzero;fill:rgb(63.137255%,87.843137%,90.980392%);fill-opacity:1;" d="M 26.832031 26.582031 L 26.875 26.625 L 26.832031 26.582031 M 23.417969 26.625 L 23.457031 26.667969 L 23.417969 26.625 M 26.792969 26.625 L 26.832031 26.667969 L 26.792969 26.625 M 23.457031 26.667969 L 23.5 26.707031 L 23.457031 26.667969 M 26.75 26.667969 L 26.792969 26.707031 L 26.75 26.667969 M 23.5 26.707031 L 23.542969 26.75 L 23.5 26.707031 M 26.707031 26.707031 L 26.75 26.75 L 26.707031 26.707031 M 23.542969 26.75 L 23.582031 26.792969 Z M 23.542969 26.75 "/>
<path style=" stroke:none;fill-rule:nonzero;fill:rgb(38.823529%,74.901961%,80%);fill-opacity:1;" d="M 26.625 26.75 L 26.667969 26.792969 Z M 26.625 26.75 "/>
<path style=" stroke:none;fill-rule:nonzero;fill:rgb(63.137255%,87.843137%,90.980392%);fill-opacity:1;" d="M 23.582031 26.792969 L 23.625 26.832031 Z M 23.582031 26.792969 "/>
<path style=" stroke:none;fill-rule:nonzero;fill:rgb(38.823529%,74.901961%,80%);fill-opacity:1;" d="M 26.582031 26.792969 L 26.625 26.832031 Z M 26.582031 26.792969 "/>
<path style=" stroke:none;fill-rule:nonzero;fill:rgb(63.137255%,87.843137%,90.980392%);fill-opacity:1;" d="M 23.625 26.832031 L 23.667969 26.875 Z M 23.625 26.832031 "/>
<path style=" stroke:none;fill-rule:nonzero;fill:rgb(38.823529%,74.901961%,80%);fill-opacity:1;" d="M 23.667969 26.832031 L 23.707031 26.875 L 23.667969 26.832031 M 26.542969 26.832031 L 26.582031 26.875 L 26.542969 26.832031 M 23.707031 26.875 L 23.75 26.917969 L 23.707031 26.875 M 26.5 26.875 L 26.542969 26.917969 L 26.5 26.875 M 23.75 26.917969 L 23.792969 26.957031 L 23.75 26.917969 M 26.457031 26.917969 L 26.5 26.957031 L 26.457031 26.917969 M 23.792969 26.957031 L 23.832031 27 L 23.792969 26.957031 M 26.417969 26.957031 L 26.457031 27 L 26.417969 26.957031 M 23.832031 27 L 23.875 27.042969 Z M 23.832031 27 "/>
<path style=" stroke:none;fill-rule:nonzero;fill:rgb(63.137255%,87.843137%,90.980392%);fill-opacity:1;" d="M 26.375 27 L 26.417969 27.042969 Z M 26.375 27 "/>
<path style=" stroke:none;fill-rule:nonzero;fill:rgb(38.823529%,74.901961%,80%);fill-opacity:1;" d="M 23.875 27.042969 L 23.917969 27.082031 Z M 23.875 27.042969 "/>
<path style=" stroke:none;fill-rule:nonzero;fill:rgb(63.137255%,87.843137%,90.980392%);fill-opacity:1;" d="M 26.332031 27.042969 L 26.375 27.082031 Z M 26.332031 27.042969 "/>
<path style=" stroke:none;fill-rule:nonzero;fill:rgb(38.823529%,74.901961%,80%);fill-opacity:1;" d="M 23.917969 27.082031 L 23.957031 27.125 Z M 23.917969 27.082031 "/>
<path style=" stroke:none;fill-rule:nonzero;fill:rgb(63.137255%,87.843137%,90.980392%);fill-opacity:1;" d="M 26.292969 27.082031 L 26.332031 27.125 L 26.292969 27.082031 M 23.957031 27.125 L 24 27.167969 L 23.957031 27.125 M 26.25 27.125 L 26.292969 27.167969 L 26.25 27.125 M 24 27.167969 L 24.042969 27.207031 L 24 27.167969 M 26.207031 27.167969 L 26.25 27.207031 L 26.207031 27.167969 M 24.042969 27.207031 L 24.082031 27.25 L 24.042969 27.207031 M 26.167969 27.207031 L 26.207031 27.25 L 26.167969 27.207031 M 24.082031 27.25 L 24.125 27.292969 L 24.082031 27.25 M 24.125 27.292969 L 24.207031 27.375 Z M 24.125 27.292969 "/>
<path style=" stroke:none;fill-rule:nonzero;fill:rgb(38.823529%,74.901961%,80%);fill-opacity:1;" d="M 24.167969 27.292969 L 24.207031 27.332031 L 24.167969 27.292969 M 26.042969 27.292969 L 26.082031 27.332031 L 26.042969 27.292969 M 24.207031 27.332031 L 24.25 27.375 L 24.207031 27.332031 M 26 27.332031 L 26.042969 27.375 L 26 27.332031 M 24.25 27.375 L 24.292969 27.417969 L 24.25 27.375 M 25.957031 27.375 L 26 27.417969 L 25.957031 27.375 M 24.292969 27.417969 L 24.332031 27.457031 L 24.292969 27.417969 M 25.917969 27.417969 L 25.957031 27.457031 L 25.917969 27.417969 M 24.332031 27.457031 L 24.375 27.5 L 24.332031 27.457031 M 25.875 27.457031 L 25.917969 27.5 L 25.875 27.457031 M 24.375 27.5 L 24.417969 27.542969 L 24.375 27.5 M 25.832031 27.5 L 25.875 27.542969 L 25.832031 27.5 M 24.417969 27.542969 L 24.457031 27.582031 Z M 24.417969 27.542969 "/>
<path style=" stroke:none;fill-rule:nonzero;fill:rgb(63.137255%,87.843137%,90.980392%);fill-opacity:1;" d="M 25.792969 27.542969 L 25.832031 27.582031 Z M 25.792969 27.542969 "/>
<path style=" stroke:none;fill-rule:nonzero;fill:rgb(38.823529%,74.901961%,80%);fill-opacity:1;" d="M 24.457031 27.582031 L 24.5 27.625 Z M 24.457031 27.582031 "/>
<path style=" stroke:none;fill-rule:nonzero;fill:rgb(63.137255%,87.843137%,90.980392%);fill-opacity:1;" d="M 25.75 27.582031 L 25.792969 27.625 L 25.75 27.582031 M 24.5 27.625 L 24.542969 27.667969 L 24.5 27.625 M 25.707031 27.625 L 25.75 27.667969 L 25.707031 27.625 M 24.542969 27.667969 L 24.582031 27.707031 L 24.542969 27.667969 M 25.667969 27.667969 L 25.707031 27.707031 L 25.667969 27.667969 M 24.582031 27.707031 L 24.625 27.75 L 24.582031 27.707031 M 25.625 27.707031 L 25.667969 27.75 L 25.625 27.707031 M 24.625 27.75 L 24.667969 27.792969 L 24.625 27.75 M 25.582031 27.75 L 25.625 27.792969 L 25.582031 27.75 M 24.667969 27.792969 L 24.75 27.875 Z M 24.667969 27.792969 "/>
<path style=" stroke:none;fill-rule:nonzero;fill:rgb(38.823529%,74.901961%,80%);fill-opacity:1;" d="M 24.707031 27.792969 L 24.75 27.832031 L 24.707031 27.792969 M 25.5 27.792969 L 25.542969 27.832031 Z M 25.5 27.792969 "/>
<path style=" stroke:none;fill-rule:nonzero;fill:rgb(63.137255%,87.843137%,90.980392%);fill-opacity:1;" d="M 25.542969 27.792969 L 25.582031 27.832031 Z M 25.542969 27.792969 "/>
<path style=" stroke:none;fill-rule:nonzero;fill:rgb(38.823529%,74.901961%,80%);fill-opacity:1;" d="M 24.792969 27.875 L 24.832031 27.917969 L 24.792969 27.875 M 25.417969 27.875 L 25.457031 27.917969 L 25.417969 27.875 M 24.832031 27.917969 L 24.875 27.957031 L 24.832031 27.917969 M 25.375 27.917969 L 25.417969 27.957031 L 25.375 27.917969 M 24.875 27.957031 L 24.917969 28 L 24.875 27.957031 M 25.332031 27.957031 L 25.375 28 L 25.332031 27.957031 M 24.917969 28 L 24.957031 28.042969 L 24.917969 28 M 25.292969 28 L 25.332031 28.042969 L 25.292969 28 M 24.957031 28.042969 L 25 28.082031 Z M 24.957031 28.042969 "/>
<path style=" stroke:none;fill-rule:nonzero;fill:rgb(63.137255%,87.843137%,90.980392%);fill-opacity:1;" d="M 25.25 28.042969 L 25.292969 28.082031 Z M 25.25 28.042969 "/>
<path style=" stroke:none;fill-rule:nonzero;fill:rgb(38.823529%,74.901961%,80%);fill-opacity:1;" d="M 25 28.082031 L 25.042969 28.125 L 25 28.082031 M 25.207031 28.082031 L 25.25 28.125 Z M 25.207031 28.082031 "/>
<path style=" stroke:none;fill-rule:nonzero;fill:rgb(63.137255%,87.843137%,90.980392%);fill-opacity:1;" d="M 25.042969 28.125 L 25.082031 28.167969 L 25.042969 28.125 M 25.167969 28.125 L 25.207031 28.167969 L 25.167969 28.125 M 25.109375 28.179688 L 25.140625 28.195312 Z M 25.109375 28.179688 "/>
<path style=" stroke:none;fill-rule:nonzero;fill:rgb(38.823529%,74.901961%,80%);fill-opacity:1;" d="M 39.332031 29.75 L 39.375 29.792969 Z M 39.332031 29.75 "/>
<path style=" stroke:none;fill-rule:nonzero;fill:rgb(63.137255%,87.843137%,90.980392%);fill-opacity:1;" d="M 39.292969 29.792969 L 39.332031 29.832031 L 39.292969 29.792969 M 39.25 29.832031 L 39.292969 29.875 L 39.25 29.832031 M 39.207031 29.875 L 39.25 29.917969 L 39.207031 29.875 M 39.167969 29.917969 L 39.207031 29.957031 Z M 39.167969 29.917969 "/>
<path style=" stroke:none;fill-rule:nonzero;fill:rgb(38.823529%,74.901961%,80%);fill-opacity:1;" d="M 39.042969 30 L 39.082031 30.042969 L 39.042969 30 M 39 30.042969 L 39.042969 30.082031 L 39 30.042969 M 32.25 30.082031 L 32.25 33.5 L 32.292969 33.5 L 32.292969 31.125 L 32.25 30.082031 M 38.957031 30.082031 L 39 30.125 Z M 38.957031 30.082031 "/>
<path style=" stroke:none;fill-rule:nonzero;fill:rgb(63.137255%,87.843137%,90.980392%);fill-opacity:1;" d="M 38.917969 30.125 L 38.957031 30.167969 L 38.917969 30.125 M 38.875 30.167969 L 38.917969 30.207031 L 38.875 30.167969 M 38.832031 30.207031 L 38.875 30.25 Z M 38.832031 30.207031 "/>
<path style=" stroke:none;fill-rule:nonzero;fill:rgb(38.823529%,74.901961%,80%);fill-opacity:1;" d="M 38.75 30.25 L 38.792969 30.292969 L 38.75 30.25 M 38.707031 30.292969 L 38.75 30.332031 L 38.707031 30.292969 M 38.667969 30.332031 L 38.707031 30.375 Z M 38.667969 30.332031 "/>
<path style=" stroke:none;fill-rule:nonzero;fill:rgb(63.137255%,87.843137%,90.980392%);fill-opacity:1;" d="M 38.625 30.375 L 38.667969 30.417969 L 38.625 30.375 M 38.582031 30.417969 L 38.625 30.457031 L 38.582031 30.417969 M 38.542969 30.457031 L 38.582031 30.5 Z M 38.542969 30.457031 "/>
<path style=" stroke:none;fill-rule:nonzero;fill:rgb(38.823529%,74.901961%,80%);fill-opacity:1;" d="M 38.417969 30.542969 L 38.457031 30.582031 Z M 38.417969 30.542969 "/>
<path style=" stroke:none;fill-rule:nonzero;fill:rgb(63.137255%,87.843137%,90.980392%);fill-opacity:1;" d="M 38.457031 30.542969 L 38.5 30.582031 Z M 38.457031 30.542969 "/>
<path style=" stroke:none;fill-rule:nonzero;fill:rgb(38.823529%,74.901961%,80%);fill-opacity:1;" d="M 38.375 30.582031 L 38.417969 30.625 L 38.375 30.582031 M 38.332031 30.625 L 38.375 30.667969 L 38.332031 30.625 M 38.292969 30.667969 L 38.332031 30.707031 Z M 38.292969 30.667969 "/>
<path style=" stroke:none;fill-rule:nonzero;fill:rgb(63.137255%,87.843137%,90.980392%);fill-opacity:1;" d="M 38.25 30.707031 L 38.292969 30.75 L 38.25 30.707031 M 38.207031 30.75 L 38.25 30.792969 L 38.207031 30.75 M 38.167969 30.792969 L 38.207031 30.832031 Z M 38.167969 30.792969 "/>
<path style=" stroke:none;fill-rule:nonzero;fill:rgb(38.823529%,74.901961%,80%);fill-opacity:1;" d="M 38.042969 30.875 L 38.082031 30.917969 L 38.042969 30.875 M 38 30.917969 L 38.042969 30.957031 L 38 30.917969 M 37.957031 30.957031 L 38 31 Z M 37.957031 30.957031 "/>
<path style=" stroke:none;fill-rule:nonzero;fill:rgb(63.137255%,87.843137%,90.980392%);fill-opacity:1;" d="M 37.917969 31 L 37.957031 31.042969 L 37.917969 31 M 37.875 31.042969 L 37.917969 31.082031 L 37.875 31.042969 M 37.832031 31.082031 L 37.875 31.125 Z M 37.832031 31.082031 "/>
<path style=" stroke:none;fill-rule:nonzero;fill:rgb(38.823529%,74.901961%,80%);fill-opacity:1;" d="M 37.75 31.125 L 37.792969 31.167969 L 37.75 31.125 M 37.707031 31.167969 L 37.75 31.207031 L 37.707031 31.167969 M 37.667969 31.207031 L 37.707031 31.25 Z M 37.667969 31.207031 "/>
<path style=" stroke:none;fill-rule:nonzero;fill:rgb(63.137255%,87.843137%,90.980392%);fill-opacity:1;" d="M 37.625 31.25 L 37.667969 31.292969 L 37.625 31.25 M 37.582031 31.292969 L 37.625 31.332031 L 37.582031 31.292969 M 37.542969 31.332031 L 37.582031 31.375 L 37.542969 31.332031 M 37.5 31.375 L 37.542969 31.417969 L 37.5 31.375 M 37.457031 31.417969 L 37.5 31.457031 Z M 37.457031 31.417969 "/>
<path style=" stroke:none;fill-rule:nonzero;fill:rgb(38.823529%,74.901961%,80%);fill-opacity:1;" d="M 37.375 31.457031 L 37.417969 31.5 L 37.375 31.457031 M 37.332031 31.5 L 37.375 31.542969 L 37.332031 31.5 M 37.292969 31.542969 L 37.332031 31.582031 Z M 37.292969 31.542969 "/>
<path style=" stroke:none;fill-rule:nonzero;fill:rgb(63.137255%,87.843137%,90.980392%);fill-opacity:1;" d="M 37.25 31.582031 L 37.292969 31.625 L 37.25 31.582031 M 37.207031 31.625 L 37.25 31.667969 L 37.207031 31.625 M 37.167969 31.667969 L 37.207031 31.707031 L 37.167969 31.667969 M 37.125 31.707031 L 37.167969 31.75 Z M 37.125 31.707031 "/>
<path style=" stroke:none;fill-rule:nonzero;fill:rgb(38.823529%,74.901961%,80%);fill-opacity:1;" d="M 37.042969 31.75 L 37.082031 31.792969 L 37.042969 31.75 M 37 31.792969 L 37.042969 31.832031 L 37 31.792969 M 36.957031 31.832031 L 37 31.875 Z M 36.957031 31.832031 "/>
<path style=" stroke:none;fill-rule:nonzero;fill:rgb(63.137255%,87.843137%,90.980392%);fill-opacity:1;" d="M 36.917969 31.875 L 36.957031 31.917969 L 36.917969 31.875 M 36.875 31.917969 L 36.917969 31.957031 L 36.875 31.917969 M 36.832031 31.957031 L 36.875 32 L 36.832031 31.957031 M 36.792969 32 L 36.832031 32.042969 Z M 36.792969 32 "/>
<path style=" stroke:none;fill-rule:nonzero;fill:rgb(38.823529%,74.901961%,80%);fill-opacity:1;" d="M 36.707031 32.042969 L 36.75 32.082031 L 36.707031 32.042969 M 36.667969 32.082031 L 36.707031 32.125 L 36.667969 32.082031 M 36.625 32.125 L 36.667969 32.167969 L 36.625 32.125 M 36.582031 32.167969 L 36.625 32.207031 Z M 36.582031 32.167969 "/>
<path style=" stroke:none;fill-rule:nonzero;fill:rgb(63.137255%,87.843137%,90.980392%);fill-opacity:1;" d="M 36.542969 32.207031 L 36.582031 32.25 L 36.542969 32.207031 M 36.5 32.25 L 36.542969 32.292969 L 36.5 32.25 M 36.457031 32.292969 L 36.5 32.332031 Z M 36.457031 32.292969 "/>
<path style=" stroke:none;fill-rule:nonzero;fill:rgb(38.823529%,74.901961%,80%);fill-opacity:1;" d="M 36.375 32.332031 L 36.417969 32.375 L 36.375 32.332031 M 36.332031 32.375 L 36.375 32.417969 L 36.332031 32.375 M 36.292969 32.417969 L 36.332031 32.457031 Z M 36.292969 32.417969 "/>
<path style=" stroke:none;fill-rule:nonzero;fill:rgb(63.137255%,87.843137%,90.980392%);fill-opacity:1;" d="M 36.25 32.457031 L 36.292969 32.5 L 36.25 32.457031 M 36.207031 32.5 L 36.25 32.542969 L 36.207031 32.5 M 36.167969 32.542969 L 36.207031 32.582031 L 36.167969 32.542969 M 36.125 32.582031 L 36.167969 32.625 Z M 36.125 32.582031 "/>
<path style=" stroke:none;fill-rule:nonzero;fill:rgb(38.823529%,74.901961%,80%);fill-opacity:1;" d="M 36.042969 32.625 L 36.082031 32.667969 L 36.042969 32.625 M 36 32.667969 L 36.042969 32.707031 L 36 32.667969 M 35.957031 32.707031 L 36 32.75 Z M 35.957031 32.707031 "/>
<path style=" stroke:none;fill-rule:nonzero;fill:rgb(63.137255%,87.843137%,90.980392%);fill-opacity:1;" d="M 35.917969 32.75 L 35.957031 32.792969 L 35.917969 32.75 M 35.875 32.792969 L 35.917969 32.832031 L 35.875 32.792969 M 35.832031 32.832031 L 35.875 32.875 L 35.832031 32.832031 M 35.792969 32.875 L 35.832031 32.917969 Z M 35.792969 32.875 "/>
<path style=" stroke:none;fill-rule:nonzero;fill:rgb(38.823529%,74.901961%,80%);fill-opacity:1;" d="M 35.667969 32.957031 L 35.707031 33 L 35.667969 32.957031 M 35.625 33 L 35.667969 33.042969 L 35.625 33 M 35.582031 33.042969 L 35.625 33.082031 Z M 35.582031 33.042969 "/>
<path style=" stroke:none;fill-rule:nonzero;fill:rgb(63.137255%,87.843137%,90.980392%);fill-opacity:1;" d="M 35.542969 33.082031 L 35.582031 33.125 L 35.542969 33.082031 M 35.5 33.125 L 35.542969 33.167969 L 35.5 33.125 M 35.457031 33.167969 L 35.5 33.207031 L 35.457031 33.167969 M 35.417969 33.207031 L 35.457031 33.25 Z M 35.417969 33.207031 "/>
<path style=" stroke:none;fill-rule:nonzero;fill:rgb(38.823529%,74.901961%,80%);fill-opacity:1;" d="M 35.332031 33.25 L 35.375 33.292969 L 35.332031 33.25 M 35.292969 33.292969 L 35.332031 33.332031 L 35.292969 33.292969 M 35.25 33.332031 L 35.292969 33.375 Z M 35.25 33.332031 "/>
<path style=" stroke:none;fill-rule:nonzero;fill:rgb(63.137255%,87.843137%,90.980392%);fill-opacity:1;" d="M 35.207031 33.375 L 35.25 33.417969 L 35.207031 33.375 M 35.167969 33.417969 L 35.207031 33.457031 L 35.167969 33.417969 M 35.125 33.457031 L 35.167969 33.5 Z M 35.125 33.457031 "/>
<path style=" stroke:none;fill-rule:nonzero;fill:rgb(38.823529%,74.901961%,80%);fill-opacity:1;" d="M 35.042969 33.5 L 35.082031 33.542969 L 35.042969 33.5 M 35 33.542969 L 35.042969 33.582031 L 35 33.542969 M 34.957031 33.582031 L 35 33.625 L 34.957031 33.582031 M 34.917969 33.625 L 34.957031 33.667969 Z M 34.917969 33.625 "/>
<path style=" stroke:none;fill-rule:nonzero;fill:rgb(63.137255%,87.843137%,90.980392%);fill-opacity:1;" d="M 34.875 33.667969 L 34.917969 33.707031 L 34.875 33.667969 M 34.832031 33.707031 L 34.875 33.75 L 34.832031 33.707031 M 34.792969 33.75 L 34.832031 33.792969 Z M 34.792969 33.75 "/>
<path style=" stroke:none;fill-rule:nonzero;fill:rgb(38.823529%,74.901961%,80%);fill-opacity:1;" d="M 34.667969 33.832031 L 34.707031 33.875 L 34.667969 33.832031 M 34.625 33.875 L 34.667969 33.917969 L 34.625 33.875 M 34.582031 33.917969 L 34.625 33.957031 Z M 34.582031 33.917969 "/>
<path style=" stroke:none;fill-rule:nonzero;fill:rgb(63.137255%,87.843137%,90.980392%);fill-opacity:1;" d="M 34.542969 33.957031 L 34.582031 34 L 34.542969 33.957031 M 34.5 34 L 34.542969 34.042969 L 34.5 34 M 34.457031 34.042969 L 34.5 34.082031 L 34.457031 34.042969 M 34.417969 34.082031 L 34.457031 34.125 Z M 34.417969 34.082031 "/>
<path style=" stroke:none;fill-rule:nonzero;fill:rgb(38.823529%,74.901961%,80%);fill-opacity:1;" d="M 34.332031 34.125 L 34.375 34.167969 L 34.332031 34.125 M 34.292969 34.167969 L 34.332031 34.207031 L 34.292969 34.167969 M 34.25 34.207031 L 34.292969 34.25 Z M 34.25 34.207031 "/>
<path style=" stroke:none;fill-rule:nonzero;fill:rgb(63.137255%,87.843137%,90.980392%);fill-opacity:1;" d="M 34.207031 34.25 L 34.25 34.292969 L 34.207031 34.25 M 34.167969 34.292969 L 34.207031 34.332031 L 34.167969 34.292969 M 34.125 34.332031 L 34.167969 34.375 L 34.125 34.332031 M 34.082031 34.375 L 34.125 34.417969 Z M 34.082031 34.375 "/>
<path style=" stroke:none;fill-rule:nonzero;fill:rgb(38.823529%,74.901961%,80%);fill-opacity:1;" d="M 34 34.417969 L 34.042969 34.457031 Z M 34 34.417969 "/>
<path style=" stroke:none;fill-rule:nonzero;fill:rgb(63.137255%,87.843137%,90.980392%);fill-opacity:1;" d="M 34.042969 34.417969 L 34.082031 34.457031 Z M 34.042969 34.417969 "/>
<path style=" stroke:none;fill-rule:nonzero;fill:rgb(38.823529%,74.901961%,80%);fill-opacity:1;" d="M 33.957031 34.457031 L 34 34.5 L 33.957031 34.457031 M 33.917969 34.5 L 33.957031 34.542969 Z M 33.917969 34.5 "/>
<path style=" stroke:none;fill-rule:nonzero;fill:rgb(63.137255%,87.843137%,90.980392%);fill-opacity:1;" d="M 33.875 34.542969 L 33.917969 34.582031 L 33.875 34.542969 M 33.832031 34.582031 L 33.875 34.625 L 33.832031 34.582031 M 33.792969 34.625 L 33.832031 34.667969 L 33.792969 34.625 M 33.75 34.667969 L 33.792969 34.707031 Z M 33.75 34.667969 "/>
<path style=" stroke:none;fill-rule:nonzero;fill:rgb(38.823529%,74.901961%,80%);fill-opacity:1;" d="M 33.667969 34.707031 L 33.707031 34.75 L 33.667969 34.707031 M 33.625 34.75 L 33.667969 34.792969 L 33.625 34.75 M 33.582031 34.792969 L 33.625 34.832031 L 33.582031 34.792969 M 33.542969 34.832031 L 33.582031 34.875 Z M 33.542969 34.832031 "/>
<path style=" stroke:none;fill-rule:nonzero;fill:rgb(63.137255%,87.843137%,90.980392%);fill-opacity:1;" d="M 33.5 34.875 L 33.542969 34.917969 L 33.5 34.875 M 33.457031 34.917969 L 33.5 34.957031 L 33.457031 34.917969 M 33.417969 34.957031 L 33.457031 35 Z M 33.417969 34.957031 "/>
<path style=" stroke:none;fill-rule:nonzero;fill:rgb(38.823529%,74.901961%,80%);fill-opacity:1;" d="M 33.332031 35 L 33.375 35.042969 L 33.332031 35 M 33.292969 35.042969 L 33.332031 35.082031 L 33.292969 35.042969 M 33.25 35.082031 L 33.292969 35.125 L 33.25 35.082031 M 33.207031 35.125 L 33.25 35.167969 Z M 33.207031 35.125 "/>
<path style=" stroke:none;fill-rule:nonzero;fill:rgb(63.137255%,87.843137%,90.980392%);fill-opacity:1;" d="M 33.167969 35.167969 L 33.207031 35.207031 L 33.167969 35.167969 M 33.125 35.207031 L 33.167969 35.25 L 33.125 35.207031 M 33.082031 35.25 L 33.125 35.292969 Z M 33.082031 35.25 "/>
<path style=" stroke:none;fill-rule:nonzero;fill:rgb(38.823529%,74.901961%,80%);fill-opacity:1;" d="M 33 35.292969 L 33.042969 35.332031 Z M 33 35.292969 "/>
<path style=" stroke:none;fill-rule:nonzero;fill:rgb(63.137255%,87.843137%,90.980392%);fill-opacity:1;" d="M 33.042969 35.292969 L 33.082031 35.332031 Z M 33.042969 35.292969 "/>
<path style=" stroke:none;fill-rule:nonzero;fill:rgb(38.823529%,74.901961%,80%);fill-opacity:1;" d="M 32.957031 35.332031 L 33 35.375 L 32.957031 35.332031 M 32.917969 35.375 L 32.957031 35.417969 L 32.917969 35.375 M 32.875 35.417969 L 32.917969 35.457031 Z M 32.875 35.417969 "/>
<path style=" stroke:none;fill-rule:nonzero;fill:rgb(63.137255%,87.843137%,90.980392%);fill-opacity:1;" d="M 32.832031 35.457031 L 32.875 35.5 L 32.832031 35.457031 M 32.792969 35.5 L 32.832031 35.542969 L 32.792969 35.5 M 32.75 35.542969 L 32.792969 35.582031 L 32.75 35.542969 M 32.707031 35.582031 L 32.75 35.625 Z M 32.707031 35.582031 "/>
<path style=" stroke:none;fill-rule:nonzero;fill:rgb(38.823529%,74.901961%,80%);fill-opacity:1;" d="M 32.625 35.625 L 32.667969 35.667969 L 32.625 35.625 M 32.582031 35.667969 L 32.625 35.707031 L 32.582031 35.667969 M 32.542969 35.707031 L 32.582031 35.75 Z M 32.542969 35.707031 "/>
<path style=" stroke:none;fill-rule:nonzero;fill:rgb(63.137255%,87.843137%,90.980392%);fill-opacity:1;" d="M 32.5 35.75 L 32.542969 35.792969 L 32.5 35.75 M 32.457031 35.792969 L 32.5 35.832031 L 32.457031 35.792969 M 32.417969 35.832031 L 32.457031 35.875 Z M 32.417969 35.832031 "/>
<path style=" stroke:none;fill-rule:nonzero;fill:rgb(38.823529%,74.901961%,80%);fill-opacity:1;" d="M 32.292969 35.917969 L 32.332031 35.957031 L 32.292969 35.917969 M 32.25 35.957031 L 32.292969 36 Z M 32.25 35.957031 "/>
</g>
</svg>
